<svg version="1.1" xmlns="http://www.w3.org/2000/svg" style="display: block;" viewBox="0 0 2048 2048" width="1024" height="1024">
<path transform="translate(0,0)" fill="rgb(255,255,255)" d="M 0 0 L 2048 0 L 2048 2048 L 0 2048 L 0 0 z"/>
<path transform="translate(0,0)" fill="rgb(0,0,0)" d="M 1554.17 1327.58 C 1554.76 1327.87 1556.03 1328.48 1556.48 1328.76 C 1560.98 1331.66 1562.19 1339.7 1563.57 1344.59 C 1568.65 1346.07 1576.73 1347.38 1579.62 1351.99 C 1576.41 1359.18 1569.11 1355.47 1564.64 1359.96 C 1559.62 1364.99 1561.61 1373.07 1555.85 1378.6 C 1550.02 1374.53 1548.56 1367.69 1546.64 1361.23 C 1543.22 1360.07 1539.37 1359.03 1536.14 1357.42 C 1533.54 1356.13 1532.52 1355.09 1531.54 1352.41 C 1531.72 1352.07 1531.86 1351.71 1532.07 1351.38 C 1534.59 1347.6 1541.49 1346.4 1545.66 1345.19 C 1548.37 1339.24 1551.08 1333.34 1554.17 1327.58 z"/>
<path transform="translate(0,0)" fill="rgb(0,0,0)" d="M 210.3 1011.37 C 216.945 1015.04 217.211 1022.92 219.205 1029.75 C 225.387 1030.86 230.358 1030.53 235.708 1034.17 C 236.214 1035.35 236.896 1035.88 236.19 1037.13 C 233.438 1041.99 224.445 1044.15 219.469 1045.97 C 218.008 1052.27 217.564 1058.73 214.548 1064.54 C 212.704 1064.71 211.796 1064.59 210.095 1063.86 C 206.587 1059.3 205.784 1052.84 204.339 1047.33 C 199.628 1045.2 191.586 1043.51 188.62 1039.09 C 187.83 1037.91 188.44 1037.32 188.82 1036.09 C 190.953 1034.2 192.438 1033.27 195.144 1032.39 L 203.482 1029.64 C 205.394 1023.3 206.85 1017.1 210.3 1011.37 z"/>
<path transform="translate(0,0)" fill="rgb(0,0,0)" d="M 743.483 142.678 C 748.074 146.206 750.014 157.097 751.841 162.655 C 755.386 163.694 759.106 164.639 762.537 166.002 C 765.027 166.991 767.123 168.049 768.232 170.604 C 765.542 176.226 756.929 177.97 751.374 179.968 C 749.351 187.226 747.909 194.973 742.932 200.831 C 737.914 194.874 736.326 187.867 734.253 180.535 C 730.265 179.127 726.24 177.558 722.417 175.745 C 719.513 174.367 717.94 173.111 716.829 170.11 C 720.427 164.989 727.517 164.817 733.301 163.76 C 735.9 156.614 738.446 148.481 743.483 142.678 z"/>
<path transform="translate(0,0)" fill="rgb(0,0,0)" d="M 1451.87 1628.44 C 1458.05 1633.09 1460.17 1649.51 1462.54 1657.07 C 1470.09 1656.8 1484.58 1654.64 1491.1 1658.21 C 1489.93 1664.06 1473.1 1671.64 1468.2 1676.27 C 1469.22 1683.08 1475.31 1689.7 1477.37 1696.57 C 1478.15 1699.16 1478.14 1700.34 1476.96 1702.74 C 1470.81 1702.48 1460.81 1693.54 1455.65 1689.83 C 1448.31 1688.45 1440.51 1697.59 1433.98 1701.04 C 1431.85 1702.17 1430.61 1702.64 1428.3 1701.78 C 1427.04 1695.24 1433.55 1681.64 1435.85 1675.34 C 1430.57 1671.31 1417.06 1665.31 1414.85 1659.13 L 1416.23 1657.96 C 1424.82 1656.34 1433.49 1657.49 1442.12 1658.23 C 1444.12 1649.77 1445.82 1634.62 1451.87 1628.44 z"/>
<path transform="translate(0,0)" fill="rgb(0,0,0)" d="M 132.613 1508.12 C 137.888 1507.66 142.61 1507.67 147.572 1509.78 C 154.103 1512.55 159.101 1517.85 161.725 1524.42 C 164.676 1531.81 164.717 1540.25 161.426 1547.54 C 157.494 1556.24 150.774 1560.17 142.273 1563.4 C 136.285 1563.5 130.753 1563.57 125.178 1560.96 A 27.8564 27.8564 0 0 1 110.496 1544.6 A 27.2567 27.2567 0 0 1 112.302 1522.67 C 116.779 1514.57 124.023 1510.63 132.613 1508.12 z"/>
<path transform="translate(0,0)" fill="rgb(255,255,255)" d="M 135.062 1520.12 C 137.021 1520.29 139.086 1520.47 140.99 1520.97 C 144.521 1521.91 148.058 1525.09 149.719 1528.28 C 151.63 1531.96 151.615 1536.23 150.264 1540.09 C 148.267 1545.79 144.083 1548.26 138.877 1550.7 C 136.33 1550.56 133.807 1550.44 131.396 1549.52 C 127.785 1548.15 124.87 1544.99 123.351 1541.49 A 14.8501 14.8501 0 0 1 123.649 1528.92 C 126.047 1523.99 129.997 1521.64 135.062 1520.12 z"/>
<path transform="translate(0,0)" fill="rgb(0,0,0)" d="M 491.845 228.242 C 497.47 227.939 502.109 228.869 507.109 231.552 C 513.544 235.006 518.007 240.842 520.044 247.826 C 522.208 255.247 521.733 263.608 517.841 270.386 C 512.775 279.208 505.343 282.253 496.045 284.73 C 490.977 284.332 486.159 283.321 481.609 280.963 C 474.589 277.324 469.058 271.196 466.947 263.492 A 27.3928 27.3928 0 0 1 470.42 241.484 C 475.544 233.569 482.965 230.234 491.845 228.242 z"/>
<path transform="translate(0,0)" fill="rgb(255,255,255)" d="M 489.002 241.028 C 491.343 240.913 493.647 240.81 495.978 241.136 C 500.529 241.774 504.497 244.363 507.048 248.185 A 14.3346 14.3346 0 0 1 509.058 259.259 C 507.667 265.381 503.63 268.525 498.474 271.551 C 495.797 271.911 493.251 272.236 490.57 271.702 C 486.727 270.936 483.305 268.373 481.243 265.074 C 478.913 261.346 478.451 256.797 479.408 252.56 C 480.71 246.792 484.125 243.945 489.002 241.028 z"/>
<path transform="translate(0,0)" fill="rgb(0,0,0)" d="M 500.875 1058.18 C 506.482 1058.18 511.288 1058.66 516.372 1061.21 A 27.423 27.423 0 0 1 530.701 1078.51 A 28.6376 28.6376 0 0 1 527.753 1100.88 C 522.862 1109.02 515.878 1112.55 507.02 1115.02 C 500.134 1115.19 494.135 1114.55 488.239 1110.68 A 29.5691 29.5691 0 0 1 475.538 1091.48 A 27.5052 27.5052 0 0 1 479.828 1070.45 C 485.163 1062.78 492.044 1060.02 500.875 1058.18 z"/>
<path transform="translate(0,0)" fill="rgb(255,255,255)" d="M 499.019 1070.08 C 501.885 1069.88 505.011 1069.58 507.835 1070.21 C 512.155 1071.18 516.188 1073.98 518.485 1077.77 C 520.771 1081.56 521.148 1085.94 520.068 1090.17 C 518.405 1096.68 514.302 1099.66 508.733 1102.88 C 505.759 1103.1 502.478 1103.52 499.551 1102.81 C 495.222 1101.75 491.07 1098.48 488.861 1094.64 C 486.585 1090.68 486.183 1086.03 487.529 1081.69 C 489.414 1075.61 493.706 1072.99 499.019 1070.08 z"/>
<path transform="translate(0,0)" fill="rgb(0,0,0)" d="M 685.58 1604.15 C 691.24 1603.74 696.409 1604.65 701.613 1606.97 A 29.1095 29.1095 0 0 1 717.208 1623.73 A 28.0964 28.0964 0 0 1 715.907 1645.94 C 711.775 1654.08 705.271 1658.31 696.778 1660.94 C 690.172 1661.91 684.198 1661.52 678.05 1658.61 A 27.584 27.584 0 0 1 663.504 1642.03 C 661.112 1634.72 661.565 1626.49 665.211 1619.67 C 669.746 1611.18 676.714 1607.06 685.58 1604.15 z"/>
<path transform="translate(0,0)" fill="rgb(255,255,255)" d="M 685.063 1617.07 C 687.799 1616.8 690.689 1616.41 693.406 1616.99 C 697.763 1617.92 701.777 1621.04 703.944 1624.9 C 706.101 1628.75 706.632 1633.27 705.218 1637.48 C 703.277 1643.25 699.611 1645.84 694.339 1648.4 C 691.865 1648.78 689.537 1649.03 687.04 1648.65 C 683.176 1648.06 679.42 1645.76 677.166 1642.56 C 674.516 1638.8 674.012 1633.98 674.989 1629.57 C 676.348 1623.44 680.052 1620.42 685.063 1617.07 z"/>
<path transform="translate(0,0)" fill="rgb(0,0,0)" d="M 1901.41 531.162 C 1907.88 530.744 1913.87 530.669 1920 533.138 C 1927.25 536.055 1933.31 541.711 1936.15 549.055 C 1938.97 556.354 1938.39 564.439 1935.09 571.481 C 1931.07 580.064 1924.27 584.93 1915.67 588.284 C 1908.94 589.527 1902.65 589.12 1896.32 586.397 C 1889.08 583.284 1883.27 577.43 1880.57 569.986 A 29.1761 29.1761 0 0 1 1881.7 547.462 C 1885.9 538.762 1892.73 534.459 1901.41 531.162 z"/>
<path transform="translate(0,0)" fill="rgb(255,255,255)" d="M 1904.01 544.195 C 1907.18 544.063 1910.53 543.776 1913.62 544.632 C 1917.83 545.8 1921.6 548.582 1923.61 552.511 C 1925.44 556.091 1925.46 560.396 1924.26 564.172 C 1922.16 570.785 1917.7 573.692 1911.8 576.734 C 1909.08 576.884 1906.28 577.114 1903.67 576.192 C 1899.26 574.638 1895.16 571.129 1893.14 566.898 A 16.2804 16.2804 0 0 1 1892.67 553.961 C 1894.79 548.657 1899.08 546.459 1904.01 544.195 z"/>
<path transform="translate(0,0)" fill="rgb(0,0,0)" d="M 1274.63 151.406 C 1282.55 154.869 1289.26 165.702 1294.61 172.464 C 1301.02 170.554 1310.44 166.543 1317.19 167.459 C 1319.15 167.724 1318.81 167.933 1319.87 169.386 C 1319.04 176.66 1312.25 185.314 1308.46 191.505 C 1311.84 197.882 1316.51 203.548 1319.87 209.905 C 1321.05 212.14 1321.65 213.363 1320.77 215.81 C 1314.32 218.616 1301.61 213.973 1294.77 212.305 C 1290.09 217.887 1284.81 225.748 1278.98 230.089 C 1277.15 231.448 1276.85 231.434 1274.74 231.081 C 1270.76 225.028 1272.25 211.177 1272.17 203.94 C 1266.36 200.37 1250.82 196.093 1247.54 190.994 C 1250.4 186.202 1267.24 181.91 1272.93 179.829 C 1272.58 170.312 1271.85 160.638 1274.63 151.406 z"/>
<path transform="translate(0,0)" fill="rgb(0,0,0)" d="M 251.085 331.536 C 258.888 336.228 265.445 348.907 270.562 356.471 L 301.01 348.524 C 295.838 358.025 288.979 366.85 283.404 376.179 C 287.995 384.98 292.554 393.736 296.551 402.831 L 270.315 397.42 C 265.903 397.257 251.636 414.646 247.196 418.398 C 245.634 407.893 245.96 397.196 244.372 386.601 C 235.022 383.111 225.816 379.504 216.676 375.482 C 226.236 371.044 236.858 367.028 247.017 364.197 C 249.073 353.407 249.092 342.347 251.085 331.536 z"/>
<path transform="translate(0,0)" fill="rgb(0,0,0)" d="M 1888.02 1252.3 C 1895.97 1258.26 1901.94 1267.73 1907.15 1276.04 C 1916.57 1275.16 1926.06 1275.18 1935.52 1275.03 C 1930.08 1284.11 1924.04 1292.34 1916.97 1300.21 A 641.892 641.892 0 0 1 1926.24 1328.31 C 1917.51 1325.18 1909.05 1321.73 1900.6 1317.91 C 1899.77 1317.81 1898.91 1317.37 1898.12 1317.61 C 1896.28 1318.16 1880.21 1331.73 1875.88 1334.41 L 1876.28 1307.99 C 1868.73 1302.32 1860.85 1297.54 1853.59 1291.41 C 1862.09 1287.86 1870.55 1284.4 1879.26 1281.37 C 1881.77 1271.51 1884.79 1261.94 1888.02 1252.3 z"/>
<path transform="translate(0,0)" fill="rgb(0,0,0)" d="M 174.088 1150.41 C 232.483 1148.98 291.183 1150.13 349.604 1150.1 L 410.382 1150.09 C 423.249 1150.1 436.632 1149.41 449.383 1151.15 C 456.663 1152.13 461.957 1153.99 467.505 1158.94 C 478.226 1168.5 481.201 1180.23 481.712 1193.96 C 482.834 1224.11 481.912 1254.62 481.918 1284.8 C 481.922 1303.29 484.022 1324.19 480.937 1342.32 C 479.668 1349.78 475.804 1357.69 470.523 1363.12 C 465.789 1367.98 459.541 1371.02 452.973 1372.55 C 435.9 1376.53 393.793 1373.91 374.5 1373.78 C 327.283 1373.63 279.75 1372.38 232.566 1373.77 C 213.505 1396.15 196.14 1420.53 175.284 1441.32 L 174.944 1375.04 C 164.413 1373.39 153.957 1371.22 145.611 1364.08 C 136.665 1356.41 133.775 1345.01 132.98 1333.67 C 130.987 1305.24 132.083 1275.94 131.939 1247.41 C 131.835 1226.74 129.643 1203.64 132.884 1183.33 C 134.083 1175.81 136.068 1169.76 141.309 1163.99 C 150.056 1154.37 161.623 1151.28 174.088 1150.41 z"/>
<path transform="translate(0,0)" fill="rgb(255,255,255)" d="M 374.701 1301.09 C 385.286 1300.73 404.255 1297.84 413.036 1303.94 C 414.568 1306.42 415.257 1307.59 415.348 1310.6 C 413.986 1313.66 413.358 1313.96 410.716 1315.81 C 402.403 1316.48 381.211 1319.55 374.363 1314.89 C 372.419 1313.57 371.174 1312.16 371.092 1309.69 C 370.984 1306.43 372.944 1303.64 374.701 1301.09 z"/>
<path transform="translate(0,0)" fill="rgb(255,255,255)" d="M 195.326 1301.15 C 205.355 1300.96 235.063 1298.42 242.551 1303.63 C 244.902 1305.27 245.012 1305.76 245.519 1308.39 C 244.23 1311.57 243.341 1312.95 240.784 1315.23 C 230.595 1315.47 201.805 1317.95 194.017 1313.18 C 191.715 1311.77 191.706 1310.6 191.207 1308.19 C 192.036 1305.01 193.101 1303.54 195.326 1301.15 z"/>
<path transform="translate(0,0)" fill="rgb(255,255,255)" d="M 274.125 1300.37 C 286.719 1300.01 299.384 1300.7 311.992 1300.59 C 319.142 1300.53 326.448 1299.45 333.564 1300.13 C 336.706 1300.43 340.691 1301.2 342.913 1303.64 C 344.512 1305.4 345.236 1308.2 344.735 1310.53 C 344.11 1313.43 342.041 1314.37 339.852 1315.94 C 329.399 1316.25 277.778 1318.68 271.656 1313.13 C 269.966 1311.59 269.139 1310.09 269.453 1307.76 C 269.866 1304.68 272.078 1302.49 274.125 1300.37 z"/>
<path transform="translate(0,0)" fill="rgb(255,255,255)" d="M 193.095 1246.41 C 213.775 1245.21 234.858 1245.91 255.584 1245.89 A 6627.51 6627.51 0 0 1 351.081 1246.1 C 351.379 1252.6 351.553 1258.81 350.828 1265.29 C 331.155 1266.16 311.231 1265.49 291.525 1265.45 A 6709.34 6709.34 0 0 1 193.034 1264.86 C 192.872 1258.72 193.026 1252.56 193.095 1246.41 z"/>
<path transform="translate(0,0)" fill="rgb(255,255,255)" d="M 192.405 1201.2 C 230.801 1199.56 269.865 1200.73 308.332 1200.71 C 347.037 1200.69 386.172 1199.48 424.825 1201.13 C 425.05 1208.06 425.286 1214.99 423.977 1221.83 C 414.806 1223.03 404.959 1222.36 395.709 1222.3 L 349.852 1222.12 C 297.322 1222.13 244.729 1222.8 192.207 1222.08 C 191.921 1215.04 191.802 1208.22 192.405 1201.2 z"/>
<path transform="translate(0,0)" fill="rgb(0,0,0)" d="M 1009.52 155.43 C 1027.08 153.319 1047.46 156.237 1064.59 160.2 C 1114.57 171.768 1160.15 203.139 1187.11 247.049 C 1215.22 292.835 1222.92 345.196 1210.69 397.224 C 1218.1 389.955 1226.42 383.708 1234.79 377.589 C 1284.74 341.047 1331.59 332.033 1392.21 341.46 C 1393.13 335.173 1394.54 329.251 1396.56 323.223 C 1414.67 269.11 1458.02 224.299 1508.56 199.144 A 222.782 222.782 0 0 1 1679.03 187.384 C 1732.46 205.405 1779.69 245.594 1804.63 296.246 C 1829.37 346.461 1833.65 402.642 1815.4 455.704 C 1801.86 495.065 1775.19 532.926 1740.26 556.092 C 1727.08 564.833 1712.71 571.47 1698.53 578.403 C 1712.99 602.094 1719.79 621.253 1725.51 648.286 C 1775.31 649.218 1815.43 664.979 1851.24 699.814 A 164.831 164.831 0 0 1 1901.04 814.978 A 15683.6 15683.6 0 0 1 1901.32 1026.87 L 1901.34 1079.53 C 1901.35 1089.78 1902.16 1100.81 1900.51 1110.95 A 38.8537 38.8537 0 0 1 1889.43 1132.37 C 1884.48 1137.21 1877.29 1139.12 1870.6 1140.12 C 1856.76 1142.18 1841.49 1140.96 1827.51 1140.97 L 1743.06 1140.99 C 1743.07 1158.26 1744.98 1193.21 1742.22 1208.62 C 1741.37 1213.38 1739.84 1218.14 1736.48 1221.74 C 1732.98 1225.49 1727.94 1227.8 1722.91 1228.51 C 1714.13 1229.76 1704.81 1229.18 1695.96 1229.16 L 1649.44 1229.03 L 1490.13 1229.13 C 1489.37 1284.72 1490.14 1340.42 1489.81 1396.03 C 1489.7 1415.96 1491.67 1445.58 1488.35 1464.56 A 58.1527 58.1527 0 0 1 1474.31 1493.26 C 1467.02 1501.43 1457.05 1508.27 1446.36 1510.93 C 1424.71 1516.31 1388.31 1513.99 1365.13 1514.01 C 1308.11 1514.07 1246.95 1512.02 1190.51 1515.12 C 1189.08 1543.28 1190.22 1571.92 1190.26 1600.12 L 1190.41 1744.18 C 1270.28 1768.47 1356.04 1810.19 1402.58 1882.65 A 17674.3 17674.3 0 0 0 1585.1 1882.28 C 1584.67 1845.92 1578.91 1808.96 1576.27 1772.66 L 1563.67 1615.7 C 1561.2 1586.59 1559.26 1557.51 1555.99 1528.47 C 1569.45 1531.29 1582.75 1534.28 1596.05 1537.8 A 137.62 137.62 0 0 1 1593.92 1533.06 C 1580.48 1501.46 1582.98 1462.31 1595.85 1431.01 C 1609.82 1397.05 1637.86 1367.52 1671.91 1353.34 A 145.796 145.796 0 0 1 1784.64 1353.06 C 1818.34 1367.2 1847.39 1397.3 1861.13 1431.07 C 1876.63 1469.22 1872.72 1508.93 1857.05 1546.12 C 1871 1543.36 1884.56 1539.3 1898.14 1535.16 C 1893.23 1611.23 1886.64 1687.27 1880.7 1763.27 C 1877.63 1802.51 1873.18 1842.27 1872.62 1881.62 C 1881.47 1881.74 1932.17 1880.56 1935.64 1881.85 C 1939.09 1883.14 1940.24 1885.21 1941.45 1888.4 C 1941.23 1889.98 1941.46 1890.73 1940.22 1891.9 C 1937.07 1894.87 1931.87 1895.18 1927.75 1895.39 C 1908.06 1896.42 1887.7 1895.58 1867.95 1895.66 L 1720.19 1895.53 L 1225.9 1894.72 L 347.335 1894.97 L 173.796 1894.99 C 161.733 1895.01 119.337 1896.79 110.601 1894.48 C 108.058 1893.81 107.393 1892.67 106.156 1890.51 C 106.025 1887.86 106.017 1886.74 107.491 1884.51 C 109.059 1883.5 110.07 1883.05 111.969 1882.87 C 127.943 1881.3 144.917 1882.23 160.979 1882.23 C 197.654 1882.24 234.591 1883.15 271.217 1881.47 C 240.611 1872.48 212.011 1857.73 189.058 1835.27 C 167.837 1814.5 147.244 1783.05 147.751 1752.18 C 147.82 1747.92 148.568 1742.75 152.101 1739.88 C 158.477 1734.71 188.419 1736.95 197.129 1737.04 C 196.522 1703.63 188.224 1666.31 196.46 1633.61 C 200.735 1616.64 210.472 1600.71 225.834 1591.69 C 243.72 1581.2 262.062 1582.66 281.271 1587.75 C 281.545 1574.84 281.373 1561.9 281.386 1548.99 L 273.022 1548.59 C 268.032 1548.38 264.197 1548.15 260.554 1544.33 L 260.778 1542.42 C 267.2 1537.54 274.642 1538.72 282.297 1538.87 C 282.338 1525.47 283.212 1512.37 285.245 1499.12 C 279.94 1499.34 275.483 1500.23 271.194 1496.41 C 271.012 1494.42 270.592 1494.78 271.793 1493.54 C 275.616 1489.62 281.845 1490.82 286.833 1491.01 C 288.25 1486.69 289.646 1482.31 291.472 1478.15 C 299.442 1459.96 314.313 1444.47 332.996 1437.3 C 350.8 1430.47 371.906 1431.08 389.312 1438.84 C 410.213 1448.15 423.027 1467.31 430.899 1488.03 C 435.214 1487.83 440.074 1487.26 444.338 1487.94 C 447.596 1488.46 450.691 1489.61 452.657 1492.24 C 452.5 1492.54 452.385 1492.87 452.186 1493.15 C 448.51 1498.26 438.118 1497.84 432.415 1498.29 C 436.57 1515.36 438.731 1532.5 439.538 1550.03 C 444.497 1549.95 449.962 1549.48 454.864 1550.15 C 458.051 1550.59 461.755 1551.56 463.842 1554.13 L 463.461 1555.52 C 457.205 1560.56 448.526 1559.73 440.919 1559.98 C 441.011 1576.54 442.569 1593.29 443.573 1609.82 C 448.246 1607.41 452.942 1605.18 458.067 1603.9 C 474.185 1599.86 492.316 1602.32 506.517 1611.03 C 526.812 1623.46 536.011 1644.34 541.131 1666.63 C 543.376 1666.43 546.681 1665.97 548.898 1666.63 C 551.36 1667.37 552.315 1668.77 553.469 1670.89 L 552.183 1673.29 C 548.819 1675.79 544.924 1675.25 540.92 1675.24 L 540.769 1736.76 C 552.713 1737 578.756 1734.42 588.777 1738.47 C 591.67 1739.64 593.444 1742.06 594.387 1744.95 C 598.788 1758.45 590.881 1780.82 584.857 1793.01 C 562.685 1837.87 519.104 1866.43 472.97 1881.99 C 528.348 1883.64 584.026 1882.61 639.446 1882.69 C 648.447 1869.32 660.734 1857.73 672.554 1846.83 C 727.755 1795.96 787.486 1769.95 857.029 1745.22 A 20641.2 20641.2 0 0 0 857.056 1519.87 C 835.232 1518.58 813.042 1519.31 791.169 1519.29 L 675.603 1519.24 C 653.649 1519.25 629.287 1521.67 607.72 1518.1 C 598.528 1516.58 589.747 1512.24 582.547 1506.34 A 53.4068 53.4068 0 0 1 563.793 1473.92 C 561.386 1460.12 562.726 1444.61 562.801 1430.61 A 5103.56 5103.56 0 0 0 562.959 1360.41 A 17806.4 17806.4 0 0 1 562.822 1118.49 A 8767.64 8767.64 0 0 0 563.031 1023.42 C 562.987 1000.55 563.424 977.622 561.35 954.82 C 526.207 952.732 490.306 954.206 455.046 954.234 C 372.163 954.3 289.145 955.805 206.273 954.488 C 197.329 954.346 186.131 954.12 179.709 947.1 C 176.112 943.168 174.334 938.212 173.858 932.975 C 172.322 916.09 173.411 898.375 173.492 881.405 L 173.316 800.795 L 173.573 646.583 C 173.599 617.545 172.735 588.264 173.651 559.255 C 173.913 550.949 174.685 541.576 181.884 536 C 185.767 532.993 193.328 532.179 198.175 531.825 C 219.044 530.303 241.003 531.809 261.996 531.842 C 298.498 531.898 335.15 531.208 371.628 532.488 C 382.5 509.545 396.65 487.568 414.362 469.342 C 454.019 428.538 509.806 409.898 565.843 408.88 A 179.913 179.913 0 0 1 600.836 334.079 A 164.64 164.64 0 0 1 711.005 272.625 C 757.299 267.696 793.766 282.268 829.211 310.696 C 831.899 302.324 833.402 293.546 836.023 285.113 C 842.881 263.051 856.206 241.806 871.052 224.262 C 906.944 181.846 954.658 159.983 1009.52 155.43 z"/>
<path transform="translate(0,0)" fill="rgb(255,255,255)" d="M 1528.02 1160.78 A 53.0121 53.0121 0 0 1 1530.25 1161.18 C 1534.8 1162.1 1538.75 1164.23 1541.16 1168.33 C 1542.78 1171.06 1543.34 1174.19 1542.34 1177.27 C 1541 1181.42 1538.08 1183.4 1534.42 1185.36 C 1532.13 1185.45 1529.83 1185.47 1527.57 1185.04 C 1524.41 1184.45 1521.75 1182.18 1520.12 1179.46 C 1518.5 1176.76 1518.31 1173.5 1519.17 1170.52 C 1520.57 1165.61 1523.8 1163.25 1528.02 1160.78 z"/>
<path transform="translate(0,0)" fill="rgb(255,255,255)" d="M 1455.11 1160.95 C 1457.18 1161.03 1459.11 1161.12 1461.09 1161.76 C 1464.79 1162.94 1467.79 1165.56 1469.35 1169.13 C 1470.84 1172.53 1470.58 1175.9 1468.97 1179.23 C 1467.18 1182.92 1463.74 1184.57 1460.08 1185.83 C 1458.1 1185.85 1456.04 1185.74 1454.11 1185.29 C 1450.87 1184.55 1448.16 1181.97 1446.62 1179.08 C 1445.11 1176.22 1444.92 1172.95 1445.91 1169.89 C 1447.53 1164.9 1450.59 1163.13 1455.11 1160.95 z"/>
<path transform="translate(0,0)" fill="rgb(255,255,255)" d="M 1599.82 1161.07 C 1602.16 1160.91 1604.6 1160.74 1606.93 1161.05 C 1610.6 1161.55 1613.84 1164.26 1615.79 1167.31 C 1617.59 1170.11 1618.05 1173.33 1617.1 1176.52 C 1615.83 1180.76 1613.16 1182.91 1609.48 1185.08 C 1607.33 1185.09 1605.11 1185.14 1602.98 1184.86 C 1599.6 1184.41 1596.14 1182.27 1594.11 1179.56 C 1592.36 1177.23 1591.68 1174.51 1592.16 1171.63 C 1592.97 1166.71 1596.06 1163.99 1599.82 1161.07 z"/>
<path transform="translate(0,0)" fill="rgb(255,255,255)" d="M 1673.89 1161.13 C 1676.36 1160.8 1678.88 1160.43 1681.38 1160.72 A 12.7821 12.7821 0 0 1 1690.51 1166.27 C 1692.38 1169.04 1692.93 1172.22 1692.04 1175.45 C 1690.73 1180.18 1687.7 1183 1683.66 1185.51 A 23.7435 23.7435 0 0 1 1679.16 1185.71 A 14.3289 14.3289 0 0 1 1668.65 1180.58 C 1666.4 1177.88 1665.64 1174.3 1666.25 1170.87 C 1667.1 1166.06 1670.21 1163.89 1673.89 1161.13 z"/>
<path transform="translate(0,0)" fill="rgb(255,255,255)" d="M 1586.98 389.477 C 1590.56 391.516 1594.15 393.574 1598.02 395.027 C 1614.19 401.098 1628.15 395.873 1642.88 389.11 C 1643.08 396.073 1643.66 402.8 1640.54 409.248 C 1638.17 412.121 1635.65 414.497 1632.49 416.502 A 30.6911 30.6911 0 0 1 1609.04 420.472 C 1599.12 418.231 1592.61 412.197 1587.16 403.939 C 1586.94 399.131 1587.01 394.291 1586.98 389.477 z"/>
<path transform="translate(0,0)" fill="rgb(255,255,255)" d="M 1019.22 1436.23 C 1023.39 1436.19 1027.55 1436.31 1031.57 1437.51 A 26.7239 26.7239 0 0 1 1047.98 1451.3 C 1050.88 1457.27 1051.42 1464.16 1048.88 1470.35 C 1045.32 1479.06 1037.94 1483.22 1029.75 1486.71 C 1024.36 1487.22 1019.5 1487.32 1014.42 1485.11 C 1007.35 1482.03 1001.83 1476.25 999.401 1468.9 A 24.4443 24.4443 0 0 1 1001.22 1449.65 C 1005.2 1442.29 1011.44 1438.57 1019.22 1436.23 z"/>
<path transform="translate(0,0)" fill="rgb(255,255,255)" d="M 629.993 581.659 C 633.947 583.808 638.047 590.52 640.9 594.09 C 620.987 616.024 599.094 640.714 575.243 658.339 C 566.919 652.126 559.209 644.758 551.451 637.842 C 547.282 633.887 543.318 629.672 539.292 625.57 C 541.853 621.792 545.029 618.524 548.094 615.155 C 557.496 621.913 566.769 629.33 575.136 637.329 A 1820.62 1820.62 0 0 1 629.993 581.659 z"/>
<path transform="translate(0,0)" fill="rgb(255,255,255)" d="M 883.271 419.089 C 937.207 417.29 991.792 420.364 1045.78 420.936 C 1063.12 421.12 1159.27 419.749 1166.78 422.404 C 1168.77 423.108 1170.09 424.247 1170.55 426.406 C 1171.14 429.157 1170.43 430.219 1169 432.341 C 1099.73 432.734 1030.24 430.439 960.969 429.423 A 2976.59 2976.59 0 0 0 909.816 429.08 C 901.922 429.073 892.082 430.156 884.392 428.76 C 881.981 428.323 881.24 427.6 879.961 425.622 C 880.474 422.333 881.255 421.638 883.271 419.089 z"/>
<path transform="translate(0,0)" fill="rgb(255,255,255)" d="M 1445.83 1102.09 C 1475.67 1102.42 1505.55 1102 1535.39 1101.83 C 1549.05 1101.76 1563.48 1100.77 1577.09 1101.88 C 1580.4 1102.15 1583.58 1102.95 1585.58 1105.88 C 1587.17 1108.21 1587.35 1111.31 1586.92 1114.02 C 1586.21 1118.45 1584.41 1120.44 1580.84 1122.98 C 1553.06 1123.61 1525.16 1122.99 1497.36 1123.1 C 1481.3 1123.16 1463.68 1124.72 1447.79 1123 C 1444.76 1122.68 1441.62 1121.45 1439.88 1118.78 C 1438.33 1116.39 1438.42 1113.35 1438.98 1110.69 C 1439.96 1106.04 1442.02 1104.47 1445.83 1102.09 z"/>
<path transform="translate(0,0)" fill="rgb(255,255,255)" d="M 1445.97 1053.96 C 1457.2 1052.66 1469.77 1053.83 1481.15 1053.89 L 1547.94 1053.98 L 1639.2 1053.93 C 1655.62 1053.91 1672.61 1052.99 1688.95 1054.36 C 1692.72 1054.68 1695.33 1054.93 1697.78 1058.09 C 1699.04 1059.72 1699.35 1061.71 1699.02 1063.74 C 1698.18 1068.82 1695.63 1071.37 1691.6 1074.29 C 1683.79 1075.46 1675.34 1074.79 1667.43 1074.81 L 1624.89 1074.94 L 1469.41 1075.01 C 1461.82 1074.99 1445.13 1076.95 1440.06 1070.47 C 1438.64 1068.66 1438.28 1066.38 1438.62 1064.16 C 1439.4 1058.89 1441.79 1056.8 1445.97 1053.96 z"/>
<path transform="translate(0,0)" fill="rgb(255,255,255)" d="M 1608.27 276.418 C 1629.2 276.439 1648.64 284.128 1654.76 306.052 C 1655.89 310.129 1656.23 317.091 1659.21 319.954 C 1661.14 320.256 1663.51 320.425 1665.34 321.094 C 1666.75 321.61 1668.12 322.288 1668.78 323.7 C 1670.18 326.737 1669.81 331.912 1668.22 334.871 C 1667.16 336.853 1665.59 337.226 1663.6 337.805 C 1652.63 341.004 1652.31 357.636 1646.53 366.524 C 1640.2 376.26 1630.09 380.207 1619.24 382.671 C 1611.35 383.096 1605.1 382.446 1598.01 378.655 C 1582.97 370.611 1576.5 355.59 1572.12 340.081 C 1567.68 339.033 1562.89 337.924 1559.99 334.082 C 1558.55 332.169 1558.22 329.575 1559.06 327.347 C 1561.15 321.822 1567.86 320.108 1572.85 318.345 C 1573.95 306.255 1574.96 295.906 1581.16 285.16 C 1589.79 279.949 1598.27 277.309 1608.27 276.418 z"/>
<path transform="translate(0,0)" fill="rgb(255,255,255)" d="M 255.236 1595.33 C 263.984 1594.58 272.843 1597.37 280.725 1600.86 C 281.301 1626.97 277.036 1660.52 285.823 1684.97 C 292.535 1703.65 306.097 1713.59 323.274 1721.74 C 323.713 1726.52 323.941 1731.34 324.258 1736.14 L 271.604 1736.16 C 270.629 1727.35 270.127 1718.55 269.638 1709.7 C 268.917 1709.06 267.971 1708.16 267.141 1707.7 C 264.91 1706.48 263.955 1706.33 261.709 1707.06 C 257.181 1712.96 259.506 1729.38 259.678 1736.78 L 209.318 1736.81 C 207.674 1702.45 195.194 1643.86 217.365 1614.81 C 227.016 1602.16 240.128 1597.44 255.236 1595.33 z"/>
<path transform="translate(0,0)" fill="rgb(0,0,0)" d="M 246.504 1643.45 C 248.461 1643.7 249.699 1644.11 251.441 1645.04 C 252.254 1646.25 252.991 1647.4 253.328 1648.84 C 254.496 1653.84 252.721 1659.5 250.074 1663.72 C 247.266 1662.29 246.149 1661.99 244.721 1659.04 C 242.548 1654.57 244.809 1647.73 246.504 1643.45 z"/>
<path transform="translate(0,0)" fill="rgb(255,255,255)" d="M 464.883 1614.16 A 143.296 143.296 0 0 1 471.871 1613.81 A 54.5157 54.5157 0 0 1 511.407 1629.61 C 529.764 1648.15 529.394 1671.18 529.279 1695.51 L 528.864 1736.15 L 465.296 1735.95 L 465.112 1720.75 C 465.231 1715.87 465.464 1710.64 462.684 1706.36 C 461.683 1704.82 461.532 1704.63 459.706 1704.24 C 458.225 1704.77 457.396 1705.28 456.346 1706.51 C 451.998 1711.56 453.875 1730.01 453.882 1736.71 C 441.604 1736.86 429.309 1736.74 417.029 1736.74 C 417.158 1709.8 412.313 1667.05 425.609 1643.71 C 434.259 1628.53 448.163 1618.65 464.883 1614.16 z"/>
<path transform="translate(0,0)" fill="rgb(0,0,0)" d="M 498.751 1672.35 C 500.733 1672.57 502.064 1672.86 503.851 1673.76 C 506.731 1678.65 505.534 1681.51 504.186 1686.81 C 501.626 1687.03 500.312 1687.2 498.047 1685.89 C 495.763 1681.09 497.383 1677.26 498.751 1672.35 z"/>
<path transform="translate(0,0)" fill="rgb(0,0,0)" d="M 449.399 1648.41 C 451.068 1648.67 452.507 1649.11 454.113 1649.62 C 455.152 1650.78 456.084 1651.88 456.604 1653.37 C 458.293 1658.22 457.068 1665.73 454.994 1670.29 C 454.593 1670.19 454.182 1670.13 453.79 1670 C 451.075 1669.1 450.198 1668.63 448.905 1666.03 C 446.659 1661.52 448.099 1653.06 449.399 1648.41 z"/>
<path transform="translate(0,0)" fill="rgb(255,255,255)" d="M 1724.75 1353.43 C 1749.12 1354.08 1771.47 1358.32 1792.78 1370.69 A 132.232 132.232 0 0 1 1854.91 1452.13 C 1863.63 1485.31 1857.85 1519.86 1840.61 1549.11 C 1830 1551.77 1819.04 1552.29 1808.16 1552.91 C 1820.79 1533.46 1829.33 1513.44 1830.21 1490 C 1831.23 1462.5 1823.34 1435.02 1804.15 1414.7 C 1783.48 1392.82 1756.74 1382.54 1726.94 1381.6 C 1702.98 1382.26 1679.91 1390.42 1661.72 1406.25 C 1639.91 1425.23 1626.59 1450.26 1624.88 1479.3 C 1623.2 1507.9 1633.31 1532.88 1652.08 1554.04 C 1640.86 1554.74 1629.57 1554.67 1618.33 1554.81 C 1605.82 1535.4 1598.79 1517.72 1597.31 1494.5 A 132.81 132.81 0 0 1 1631.04 1397.62 C 1655.65 1369.94 1688.14 1355.77 1724.75 1353.43 z"/>
<path transform="translate(0,0)" fill="rgb(255,255,255)" d="M 1573.81 409.186 C 1574.51 409.344 1575.36 409.196 1575.91 409.66 C 1576.66 410.295 1577.92 412.915 1578.53 413.862 C 1583.49 421.538 1588.47 426.936 1596.89 430.935 A 41.8452 41.8452 0 0 0 1630.05 432.119 C 1641.08 427.896 1647.81 420.621 1652.67 410.172 C 1669.19 413.276 1694.23 420.877 1708.3 429.736 C 1713.71 433.144 1718.17 437.57 1721.26 443.19 C 1727.75 454.996 1736.13 498.652 1740.18 515.013 C 1728.31 514.894 1716.34 515.598 1704.47 515.96 C 1690.1 515.918 1675.69 515.712 1661.32 516.028 C 1651.05 516.255 1639.47 517.92 1629.33 516.093 C 1621.83 514.743 1614.58 509.418 1607.22 507.016 C 1580.53 498.304 1554.92 497.829 1527.39 501.479 C 1526.1 478.052 1520.8 460.884 1514.02 438.848 C 1524.3 422.932 1556.03 413.772 1573.81 409.186 z"/>
<path transform="translate(0,0)" fill="rgb(255,255,255)" d="M 1723.97 1653.39 C 1740.57 1653.33 1758.06 1657.68 1771.51 1667.68 C 1788.51 1680.33 1800.99 1700.65 1804.06 1721.65 C 1806.97 1741.56 1801.21 1761.73 1789.13 1777.7 C 1775.28 1796.01 1757.03 1805.13 1734.64 1808.14 C 1714.14 1809.09 1695.59 1804.79 1679.44 1791.6 A 78.6567 78.6567 0 0 1 1651.24 1738.55 A 77.3254 77.3254 0 0 1 1668.66 1681.58 C 1683.01 1664.27 1701.87 1655.48 1723.97 1653.39 z"/>
<path transform="translate(0,0)" fill="rgb(0,0,0)" d="M 1718.15 1665.25 C 1732.44 1663.9 1746.58 1666.56 1758.95 1673.95 A 68.7117 68.7117 0 0 1 1790.64 1717.4 C 1794.75 1734.38 1792.39 1751.52 1783.04 1766.35 C 1772.86 1782.5 1758.37 1791.64 1740.01 1795.81 C 1722.91 1798.21 1707.33 1795.68 1692.71 1786.08 C 1678.26 1776.59 1667.39 1761.06 1664.02 1744.04 C 1660.52 1726.34 1665.47 1707.21 1675.65 1692.51 C 1685.84 1677.8 1700.55 1668.34 1718.15 1665.25 z"/>
<path transform="translate(0,0)" fill="rgb(255,255,255)" d="M 1758.47 1705 C 1759.38 1705.8 1760.31 1706.6 1761.17 1707.45 C 1763.29 1709.54 1764.01 1711.16 1764.06 1714.1 C 1756.56 1726.29 1732.39 1751.82 1721.3 1761.6 C 1714.61 1755.53 1708.6 1748.98 1702.54 1742.31 C 1699.55 1739.25 1694.95 1735.49 1693.33 1731.53 C 1692.69 1729.95 1692.96 1730.32 1693.71 1728.57 C 1695.84 1726.94 1697.46 1725.53 1700.35 1725.77 C 1707.64 1726.36 1716.55 1738.75 1721.48 1743.94 C 1734.41 1731.68 1745.86 1717.65 1758.47 1705 z"/>
<path transform="translate(0,0)" fill="rgb(255,255,255)" d="M 1722.64 1394.42 C 1746.42 1393.24 1768.25 1399.97 1786.56 1415.36 C 1805.05 1430.9 1815.64 1452.66 1817.4 1476.7 A 108.854 108.854 0 0 1 1791.74 1554.88 C 1772.35 1555.54 1752.72 1554.77 1733.31 1554.64 L 1670.74 1554.57 C 1651.04 1537.34 1639 1519.53 1636.9 1492.77 A 90.055 90.055 0 0 1 1658.06 1426.61 A 94.5613 94.5613 0 0 1 1722.64 1394.42 z"/>
<path transform="translate(0,0)" fill="rgb(0,0,0)" d="M 1718.11 1422.24 C 1730.78 1420.76 1743.91 1422.36 1755.34 1428.23 A 62.5525 62.5525 0 0 1 1785.85 1464.64 A 61.7693 61.7693 0 0 1 1781.76 1512.19 C 1772.17 1530.42 1754.94 1540.47 1735.89 1546.38 A 63.7365 63.7365 0 0 1 1693.45 1536.52 C 1679.4 1527.5 1668.89 1514.02 1665.48 1497.46 C 1662.1 1481.06 1665.89 1462.18 1675.31 1448.37 C 1685.63 1433.23 1700.56 1425.71 1718.11 1422.24 z"/>
<path transform="translate(0,0)" fill="rgb(255,255,255)" d="M 1722.85 1433.32 C 1734.08 1432.37 1745.03 1434.5 1754.43 1440.97 C 1766.32 1449.15 1774.37 1462.72 1776.44 1476.95 A 51.0112 51.0112 0 0 1 1766.51 1514.97 C 1757.06 1527.38 1744.32 1532.54 1729.38 1534.73 C 1718.66 1535.62 1706.84 1532 1698.07 1525.92 A 50.6226 50.6226 0 0 1 1676.67 1492.57 C 1674.38 1478.9 1678.17 1465.29 1686.25 1454.14 C 1695.52 1441.35 1707.66 1435.63 1722.85 1433.32 z"/>
<path transform="translate(0,0)" fill="rgb(255,255,255)" d="M 590.408 954.921 C 601.167 954.811 611.951 955.012 622.711 955.062 C 636.434 968.352 648.474 982.708 662.962 995.372 C 664.891 1042.78 664.065 1090.45 664.157 1137.91 L 664.018 1396.99 L 590.217 1396.85 C 589.037 1329.51 590.033 1261.99 590.011 1194.63 A 12801 12801 0 0 1 590.408 954.921 z"/>
<path transform="translate(0,0)" fill="rgb(255,255,255)" d="M 355.511 1444.35 C 356.623 1444.28 357.736 1444.2 358.851 1444.19 C 375.004 1443.94 389.994 1449.89 401.391 1461.29 C 408.479 1468.38 413.577 1477.08 416.982 1486.47 C 428.28 1517.64 431.683 1583.81 431.66 1617.91 A 140.04 140.04 0 0 0 426.687 1622.61 C 405.031 1644.32 404.931 1666.7 405.065 1695.37 L 404.99 1736.6 C 382.067 1736.12 359.043 1736.53 336.108 1736.55 C 335.521 1732.59 335.329 1728.54 335.021 1724.54 C 348.921 1726.01 362.532 1726.73 376.516 1726.12 C 377.009 1725.37 377.775 1724.29 378.058 1723.46 C 378.933 1720.9 378.391 1719.91 377.298 1717.67 C 371.304 1713.72 343.644 1714.6 333.219 1712.59 C 332.218 1701.9 334.118 1671.06 328.561 1664.01 C 326.374 1662.96 326.498 1662.87 324.202 1663.59 C 322.772 1665.1 321.506 1666.57 321.135 1668.7 C 319.79 1676.42 321.769 1698.96 321.595 1709.03 C 318.288 1706.9 314.95 1704.63 311.892 1702.14 C 300.38 1692.79 294.917 1680.87 293.416 1666.28 C 291.633 1648.96 293.156 1630.36 293.146 1612.91 C 293.127 1580.7 290.818 1533.77 296.579 1502.93 C 299.059 1489.65 302.842 1477.81 311.469 1467.22 C 323.008 1453.05 337.491 1446.22 355.511 1444.35 z"/>
<path transform="translate(0,0)" fill="rgb(0,0,0)" d="M 389.505 1569.35 C 392.251 1569.99 392.556 1570.05 394.476 1572.08 C 396.028 1577.16 395.482 1581.97 393.793 1586.96 C 391.793 1586.32 390.011 1585.9 388.955 1583.9 C 386.634 1579.53 388.198 1573.8 389.505 1569.35 z"/>
<path transform="translate(0,0)" fill="rgb(0,0,0)" d="M 394.458 1504.37 L 398.449 1505.38 C 399.424 1506.45 400.224 1507.46 400.696 1508.86 C 402.214 1513.35 401.459 1520.4 399.377 1524.61 C 396.605 1523.68 395.483 1523.6 393.897 1520.98 C 391.356 1516.77 393.302 1508.78 394.458 1504.37 z"/>
<path transform="translate(0,0)" fill="rgb(0,0,0)" d="M 332.435 1525.65 C 334.34 1525.76 335.936 1526.06 337.774 1526.57 C 338.693 1527.6 339.48 1528.6 339.945 1529.93 C 341.656 1534.8 340.191 1542.4 338.055 1546.93 C 337.469 1546.91 336.879 1546.92 336.296 1546.86 C 333.671 1546.59 332.787 1546.28 331.394 1543.96 C 328.87 1539.75 331.014 1530.01 332.435 1525.65 z"/>
<path transform="translate(0,0)" fill="rgb(0,0,0)" d="M 382.581 1644.76 C 383.973 1644.76 385.819 1644.58 387.158 1644.9 C 388.974 1645.35 389.594 1646.17 390.298 1647.82 C 393.054 1654.28 392.188 1666.67 389.596 1673.06 C 388.509 1673.02 386.486 1673.12 385.385 1672.77 C 382.884 1671.97 382.051 1670.47 381.198 1668.15 C 378.942 1661.99 379.939 1650.63 382.581 1644.76 z"/>
<path transform="translate(0,0)" fill="rgb(0,0,0)" d="M 333.414 1591.46 C 335.843 1591.94 337.009 1592.51 338.954 1594.04 C 341.743 1598.87 341.836 1604.84 341.378 1610.27 C 341.327 1610.89 341.259 1611.5 341.211 1612.11 C 340.838 1616.91 340.81 1619.75 338.01 1623.79 C 337.311 1623.63 336.45 1623.47 335.807 1623.17 C 333.633 1622.15 332.341 1620.69 331.638 1618.4 C 329.441 1611.24 329.912 1598.15 333.414 1591.46 z"/>
<path transform="translate(0,0)" fill="rgb(255,255,255)" d="M 1052.89 241.468 C 1075.96 241.252 1099.18 240.421 1122.23 240.773 C 1126.63 240.84 1130.37 241.681 1133.2 245.395 C 1139.04 253.055 1135.16 381.888 1134.86 403.792 C 1115.94 404.204 1096.96 403.391 1078.05 403.171 L 994.5 402.925 L 909.176 402.942 C 909.13 379.413 906.713 260.652 911.563 246.444 C 914.454 243.678 919.58 243.259 923.415 242.882 C 937.474 241.5 952.297 242.372 966.452 242.302 A 4399.77 4399.77 0 0 0 1052.89 241.468 z"/>
<path transform="translate(0,0)" fill="rgb(0,0,0)" d="M 933.687 252.902 C 949.514 252.02 965.644 252.588 981.5 252.637 C 1023.18 252.768 1064.69 254.258 1106.34 255.145 C 1096.12 265.937 1083.74 275.054 1072.29 284.491 A 6023.09 6023.09 0 0 0 1020.1 328.166 C 1022.58 332.104 1025.48 335.61 1028.41 339.21 C 1039.56 332.148 1049.47 322.997 1059.73 314.723 C 1077.3 300.545 1094.98 286.558 1112.33 272.101 C 1112.15 302.962 1110.9 334.614 1112.62 365.409 C 1103.86 358.35 1095.6 350.777 1087.27 343.218 C 1081.1 337.638 1074.86 332.481 1068.12 327.593 C 1067.78 339.76 1067.84 351.966 1067.72 364.14 A 4480.84 4480.84 0 0 0 973.479 364.56 C 972.583 352.779 972.795 340.943 972.8 329.136 C 958.945 339.652 945.827 351.71 932.822 363.282 A 3806.34 3806.34 0 0 1 931.37 271.085 C 951.99 290.892 973.757 309.663 995.168 328.609 L 1005.68 317.972 C 983.179 295.026 954.926 276.97 933.687 252.902 z"/>
<path transform="translate(0,0)" fill="rgb(255,255,255)" d="M 328.087 1748.48 L 502.048 1748.41 L 551.202 1748.47 C 560.981 1748.5 571.261 1747.87 580.927 1749.38 C 582.519 1751 582.805 1751.4 583.035 1753.78 C 584.859 1772.58 567.928 1800.84 556.345 1814.74 C 521.745 1856.24 469.059 1874.39 416.76 1879.18 C 413.787 1879.55 410.789 1879.78 407.804 1880.03 C 339.777 1885.65 258.506 1878.13 204.705 1832.17 C 180.204 1811.24 161.085 1781.6 158.607 1748.92 C 177.873 1747.86 197.498 1748.63 216.808 1748.66 A 9559.8 9559.8 0 0 0 328.087 1748.48 z"/>
<path transform="translate(0,0)" fill="rgb(255,255,255)" d="M 1171.81 1513.25 L 1175.47 1513.14 C 1175.86 1513.6 1176.38 1513.99 1176.65 1514.54 C 1178.3 1517.83 1176.39 1719.19 1176.22 1740.54 C 1069.23 1718.12 1000.43 1714.28 892.633 1736.2 C 885.183 1737.72 877.771 1739.6 870.359 1741.3 C 872.462 1695.52 870.926 1649.07 870.926 1603.22 C 927.21 1578.12 987.094 1562.28 1046.35 1546.1 C 1070.51 1539.5 1094.78 1533.45 1119.01 1527.1 C 1136.61 1522.49 1154.05 1517.26 1171.81 1513.25 z"/>
<path transform="translate(0,0)" fill="rgb(255,255,255)" d="M 1596.9 188.42 C 1600.39 187.977 1604.02 188.064 1607.53 188.067 A 211.08 211.08 0 0 1 1755.58 250.734 C 1793.86 289.609 1814.34 339.429 1814.06 393.905 C 1799.97 391.075 1784.05 386.861 1769.63 389.228 C 1756.71 391.349 1749.17 398.945 1742.01 409.184 C 1725.27 409.428 1705.88 410.945 1689.48 407.892 C 1677.14 405.596 1664.5 400.596 1652.4 396.978 C 1652.4 392.419 1652.02 388.075 1651.48 383.558 C 1657.56 372.996 1662.59 362.084 1667.57 350.979 C 1672.77 348.238 1676.88 345.37 1679.85 340.129 C 1682.94 334.664 1684.13 328.448 1682.17 322.37 C 1679.79 314.973 1674.63 311.63 1668 308.279 C 1665.98 299.621 1662.75 291.544 1657.28 284.438 C 1646.49 270.43 1631.58 266.034 1614.83 264.069 C 1604.38 264.247 1580.21 271.47 1573.25 270.083 C 1569.1 269.258 1565.01 266.408 1561 264.969 C 1558.4 264.034 1557.4 263.842 1554.92 265.041 C 1554.5 266.133 1554.37 266.269 1554.29 267.621 C 1553.87 274.285 1558.53 278.779 1562.69 283.219 C 1560.42 292.271 1558.85 300.966 1559.27 310.34 C 1554.15 313.409 1549.59 316.447 1547.16 322.157 C 1545.12 326.937 1545.07 332.026 1547.06 336.833 C 1549.74 343.336 1554.81 348.105 1561.26 350.693 C 1565.97 360.901 1570.8 371.076 1577.11 380.406 L 1575.82 398.017 C 1567.73 400.495 1559.71 403.662 1551.45 405.488 C 1533.41 409.469 1512.92 407.379 1494.57 406.908 C 1466.4 373.507 1445.33 359.618 1404.84 344.005 C 1413.08 313.34 1425.87 287.003 1446.48 262.69 C 1484.36 218.025 1539.06 193.11 1596.9 188.42 z"/>
<path transform="translate(0,0)" fill="rgb(255,255,255)" d="M 1491.2 883.255 C 1537.61 882.086 1584.37 883.527 1630.82 883.546 L 1888.02 883.796 L 1888.92 1036.1 C 1888.93 1059.79 1890.71 1085.27 1887.89 1108.76 C 1887.28 1113.83 1886.29 1117.35 1883.5 1121.65 C 1880.51 1124.3 1877.04 1126.22 1873.11 1127.03 C 1858.18 1130.08 1840.41 1128.3 1825.13 1128.24 L 1743.02 1127.93 C 1741.8 1103.24 1742.64 1078.21 1742.59 1053.49 C 1742.57 1041.69 1743.57 1028.7 1741.25 1017.13 C 1740.26 1012.22 1738.64 1008.51 1735.01 1005.01 C 1731.57 1001.7 1727.33 999.047 1722.56 998.241 C 1705.06 995.278 1684.77 997.907 1666.91 997.699 A 11006.8 11006.8 0 0 0 1491.16 997.122 A 10893.7 10893.7 0 0 1 1491.2 883.255 z"/>
<path transform="translate(0,0)" fill="rgb(0,0,0)" d="M 1760.66 961.849 C 1763.6 961.993 1766.55 962.093 1768.85 964.259 C 1770.69 965.997 1771.33 967.909 1771.02 970.41 C 1770.66 973.443 1767.98 975.171 1765.75 976.849 C 1763.41 976.487 1760.54 976.128 1758.68 974.512 C 1756.88 972.949 1755.97 970.981 1756.19 968.601 C 1756.46 965.636 1758.64 963.738 1760.66 961.849 z"/>
<path transform="translate(0,0)" fill="rgb(0,0,0)" d="M 1802 960.481 C 1804.85 960.679 1807.37 960.951 1809.55 963.063 C 1811.39 964.84 1812.05 966.933 1811.86 969.439 C 1811.62 972.546 1809.3 974.531 1807.22 976.544 C 1804.56 976.347 1801.62 976.204 1799.47 974.377 C 1798.09 973.205 1797.32 971.872 1797.2 970.101 C 1796.92 965.752 1799.29 963.461 1802 960.481 z"/>
<path transform="translate(0,0)" fill="rgb(0,0,0)" d="M 1554.99 934.035 C 1557.56 934.013 1560.69 934.194 1563.1 935.153 C 1566.69 936.585 1569.62 939.954 1571.07 943.476 A 15.1851 15.1851 0 0 1 1571.04 955.232 C 1568.99 960.144 1566.12 962.303 1561.31 964.262 C 1559.4 964.155 1557.42 964.068 1555.54 963.678 C 1551.6 962.86 1547.98 960.111 1545.97 956.657 C 1543.99 953.272 1543.57 949.283 1544.66 945.53 C 1546.36 939.691 1549.9 936.943 1554.99 934.035 z"/>
<path transform="translate(0,0)" fill="rgb(0,0,0)" d="M 1639.18 934.107 C 1641.69 933.956 1643.93 933.952 1646.37 934.64 C 1649.92 935.641 1653.1 938.091 1654.82 941.372 C 1656.91 945.358 1656.86 949.828 1655.32 954.001 C 1653.23 959.685 1649.47 962.182 1644.11 964.473 C 1642 964.245 1639.75 964.068 1637.74 963.348 C 1633.92 961.977 1630.24 958.695 1628.46 955.04 A 14.1724 14.1724 0 0 1 1627.92 944.107 C 1629.93 938.526 1634.06 936.439 1639.18 934.107 z"/>
<path transform="translate(0,0)" fill="rgb(255,255,255)" d="M 723.891 283.439 C 767.243 284.076 794.139 298.382 826.786 325.296 C 826.724 395.105 841.251 434.604 886.995 486.853 L 782.457 487.06 C 757.801 487.092 730.862 484.915 706.662 490.258 C 680.721 495.986 661.552 512.006 647.465 534.173 C 639.797 530.275 632.486 525.725 624.541 522.386 C 600.564 512.308 574.534 513.498 550.292 522.136 C 540.916 525.477 532.621 531.121 522.479 531.524 C 522.025 531.542 521.57 531.548 521.116 531.56 C 476.431 532.298 431.662 531.161 386.958 531.507 A 194.928 194.928 0 0 1 408.691 494.143 C 447.957 441.724 512.813 419.434 576.481 422.021 C 584.804 422.36 613.964 427.645 617.596 426.883 C 618.996 426.589 619.938 425.653 620.558 424.348 C 621.75 421.838 621.391 420.781 620.485 418.41 C 613.153 411.59 588.395 410.94 578.492 409.717 A 174.664 174.664 0 0 1 614.867 337.002 C 642.404 304.869 681.911 286.463 723.891 283.439 z"/>
<path transform="translate(0,0)" fill="rgb(255,255,255)" d="M 990.992 1734.57 C 1048.28 1730.84 1109.48 1735.93 1165.14 1750.18 C 1234.33 1767.89 1308.57 1799.35 1359.93 1850.33 C 1369.85 1860.18 1379.2 1870.2 1386.38 1882.25 L 1051.5 1881.91 L 656.398 1882.14 C 658.65 1878.71 661.059 1875.36 663.775 1872.29 C 672.893 1861.98 683.828 1852.62 694.351 1843.75 C 774.822 1775.95 887.028 1740.64 990.992 1734.57 z"/>
<path transform="translate(0,0)" fill="rgb(255,255,255)" d="M 1339.29 350.396 C 1340.87 350.237 1342.41 350.1 1344 350.04 C 1386.19 348.433 1431.22 362.415 1462.3 391.672 C 1498.89 426.119 1513.52 466.47 1515.03 515.841 A 448.399 448.399 0 0 1 1526.44 513.825 A 155.183 155.183 0 0 1 1643.95 541.086 C 1673.28 562.305 1696.59 592.552 1706.59 627.666 C 1709.77 638.846 1711.23 650.608 1713.05 662.075 C 1717.44 661.362 1721.75 661.109 1726.18 661.025 C 1767.18 660.248 1809.41 676.444 1838.84 705.201 C 1872.41 738.01 1887.81 780.216 1888.28 826.471 C 1869.06 827.9 1849.15 826.931 1829.83 827.025 L 1716.75 827.502 A 8748.99 8748.99 0 0 1 1491.91 827.149 L 1491.23 705.762 C 1491.13 686.545 1492.81 665.401 1490.51 646.425 C 1490.05 642.652 1488.75 640.394 1486.58 637.337 C 1479.56 627.44 1470.24 618.887 1461.77 610.242 A 2027.11 2027.11 0 0 0 1414.87 563.54 C 1391.57 540.7 1368.93 516.058 1343.78 495.309 C 1340.32 492.454 1335.99 488.409 1331.42 487.825 C 1330.98 487.769 1330.54 487.74 1330.1 487.693 C 1311.62 485.734 1291.98 487.032 1273.38 487.023 A 7309.46 7309.46 0 0 1 1159.54 486.514 C 1166.51 477.045 1174.67 468.409 1181.7 458.94 C 1191.39 445.885 1200.11 432.021 1210.4 419.429 A 187.303 187.303 0 0 1 1339.29 350.396 z"/>
<path transform="translate(0,0)" fill="rgb(255,255,255)" d="M 198.109 543.462 L 391.446 544.14 C 432.326 544.103 473.652 542.803 514.465 545.128 C 499.284 564.558 488.762 583.636 487.127 608.736 C 485.418 634.968 494.036 663.324 511.718 683.009 A 105.67 105.67 0 0 0 584.013 717.774 C 614.798 719.312 638.506 707.755 661.021 687.506 L 661.219 911.5 C 661.287 921.842 664.245 943.015 658.232 951.392 C 656.777 953.42 654.305 954.592 651.841 954.645 C 644.331 954.807 637.437 947.619 632.053 943.239 C 615.003 942.503 597.749 942.952 580.68 942.895 L 482.014 942.749 L 194.804 942.908 C 192.224 941.067 188.998 939.066 187.662 936.06 C 186.013 932.354 185.967 927.148 185.878 923.095 C 185.43 902.564 186.124 881.881 186.247 861.332 L 186.261 762.977 L 186.237 635.261 C 186.214 610.157 185.69 584.937 186.327 559.847 C 186.414 556.392 186.118 550.484 188.011 547.527 C 190.011 544.403 194.837 543.972 198.109 543.462 z"/>
<path transform="translate(0,0)" fill="rgb(0,0,0)" d="M 338.664 799.491 C 345.649 799.526 359.15 797.418 365.002 799.125 C 368.405 800.118 370.304 801.651 371.985 804.821 C 371.838 807.389 371.889 807.328 370.097 809.167 C 358.7 813.531 301.816 811.06 286.5 811.024 C 276.421 811.176 261.061 813.562 252.453 808.365 C 250.901 805.928 250.987 805.667 251.125 802.752 C 252.991 800.901 254.247 800.216 256.924 799.947 C 265.509 799.084 274.808 799.776 283.459 799.736 L 338.664 799.491 z"/>
<path transform="translate(0,0)" fill="rgb(0,0,0)" d="M 253.531 832.145 C 277.692 831.305 302.032 831.732 326.205 831.751 C 338.717 831.761 353.915 830.246 366.15 832.643 C 369.344 833.269 370.591 834.446 372.304 837.104 C 372.192 840.212 371.88 840.473 370.023 843.015 C 349.62 843.95 328.938 843.229 308.5 843.424 C 292.099 843.581 274.581 845.024 258.285 843.471 C 254.658 843.125 253.783 842.342 251.583 839.7 C 251.128 836.546 252.152 834.849 253.531 832.145 z"/>
<path transform="translate(0,0)" fill="rgb(0,0,0)" d="M 250.045 702.624 L 384.072 702.752 C 405.665 702.779 428.09 701.557 449.596 702.885 C 452.761 703.08 453.728 703.262 455.912 705.575 C 456.54 708.79 456.491 709.855 455.152 712.844 C 441.778 716.016 415.702 714.017 400.969 714.042 L 283.91 714.173 C 275.247 714.178 255.186 716.726 249.333 710.88 C 248.6 707.649 249.153 705.691 250.045 702.624 z"/>
<path transform="translate(0,0)" fill="rgb(0,0,0)" d="M 250.2 597.068 C 269.899 596.364 291.499 595.718 311.108 597.531 C 314.114 597.809 317.013 597.763 318.979 600.132 C 320.528 609.675 319.948 621.296 318.842 630.883 C 300.636 633.405 269.347 631.51 250.06 630.95 C 249.27 619.765 249.67 608.256 250.2 597.068 z"/>
<path transform="translate(0,0)" fill="rgb(0,0,0)" d="M 440.158 799.5 L 562.408 799.676 C 571.321 799.684 603.276 798.19 610.082 800.379 C 612.733 801.231 613.412 802.236 614.8 804.551 C 614.62 806.17 614.93 806.895 613.611 808.048 C 606.797 814.007 582.531 811.178 573.5 811.053 L 466.429 811.04 C 448.439 811.074 429.394 812.551 411.553 810.875 C 406.512 810.402 402.251 809.463 397.937 806.769 L 397.448 804.41 C 407.499 796.772 428.018 799.442 440.158 799.5 z"/>
<path transform="translate(0,0)" fill="rgb(0,0,0)" d="M 404.956 832.501 C 448.05 831.178 491.448 832.05 534.568 832.267 C 557.055 832.379 580.296 830.887 602.668 832.286 C 607.008 832.557 610.785 833.054 614.599 835.255 C 615.918 837.252 616.001 837.115 615.601 839.454 C 613.009 842.611 612.425 842.676 608.704 843.864 L 465.738 843.802 C 447.529 843.728 428.977 844.952 410.831 844.021 C 406.712 843.81 403.187 843.295 399.477 841.448 C 397.89 839.368 397.798 839.55 398.102 836.978 C 400.707 833.573 400.484 833.352 404.956 832.501 z"/>
<path transform="translate(0,0)" fill="rgb(0,0,0)" d="M 252.193 671.154 C 273.494 670.187 447.95 669.684 452.583 671.663 C 455.178 672.771 455.326 673.666 456.28 676.085 C 455.827 679.62 455.585 680.209 453.44 683.055 C 440.102 683.924 426.427 683.436 413.053 683.439 L 339.96 683.322 L 286.499 683.23 C 275.355 683.212 263.851 683.762 252.767 682.571 C 250.333 680.845 249.923 680.735 248.928 677.969 C 249.385 674.821 250.324 673.601 252.193 671.154 z"/>
<path transform="translate(0,0)" fill="rgb(0,0,0)" d="M 252.655 865.071 L 511.006 864.876 L 577.742 864.828 C 588.062 864.825 600.326 863.602 610.376 865.501 C 612.942 865.985 613.659 866.958 615.029 869.039 C 615.233 872.227 614.801 873.27 613.279 875.926 C 597.284 879.09 555.428 876.857 536.34 876.801 L 367.489 876.722 L 285.623 876.907 C 276.498 876.934 265.11 878.457 256.234 877.114 C 253.52 876.703 252.782 875.783 251.185 873.682 C 250.654 870.417 251.614 868.098 252.655 865.071 z"/>
<path transform="translate(0,0)" fill="rgb(0,0,0)" d="M 252.304 734.189 C 282.706 733.749 313.221 734.506 343.633 734.605 L 521.215 734.874 L 596.729 734.858 C 610.413 734.842 627.873 732.94 641.235 736.048 C 644.345 736.772 645.529 737.859 647.071 740.571 C 646.218 743.536 645.478 744.039 643.321 746.133 C 609.891 748.056 253.594 745.828 252.803 745.505 C 250.006 744.366 249.918 743.628 248.922 741.007 C 249.305 737.582 250.108 736.649 252.304 734.189 z"/>
<path transform="translate(0,0)" fill="rgb(255,255,255)" d="M 728.904 515.389 C 771.179 514.798 813.504 515.081 855.784 515.032 C 873.781 515.01 900.806 513.131 917.717 515.611 C 927.196 517.001 935.796 523.257 944.422 527.158 A 183.042 183.042 0 0 0 1023.01 544.146 A 194.041 194.041 0 0 0 1101.82 527.407 C 1109.6 524.004 1117.14 517.821 1125.5 516.373 C 1139.53 513.943 1173.19 515.603 1188.81 515.535 C 1234.07 515.337 1279.74 514.04 1324.96 515.792 C 1326.14 531.525 1325.66 547.584 1325.69 563.356 L 1325.78 642.04 L 1399.11 642.017 C 1413.94 642.02 1430.87 640.399 1445.31 643.662 C 1449.71 644.656 1452.56 646.459 1455.72 649.616 C 1459.8 653.674 1461.81 657.999 1462.54 663.673 C 1463.99 674.964 1462.98 687.21 1462.92 698.639 L 1462.88 760.622 L 1462.96 997.465 C 1446.71 997.563 1413.2 993.04 1400.88 1004.31 C 1394.34 1010.3 1393.36 1017.9 1393.13 1026.25 C 1392.05 1066.66 1393.53 1107.37 1393.6 1147.81 C 1393.63 1166.75 1391.04 1193.62 1393.82 1211.61 C 1394.48 1215.9 1396.5 1220.38 1399.62 1223.44 C 1409.1 1232.76 1448.34 1229.11 1461.87 1229.06 C 1461.62 1278.29 1462.33 1327.52 1461.5 1376.75 L 1461.31 1397.35 C 1344.27 1400.04 1226.77 1398.41 1109.69 1398.15 L 676.703 1397.31 C 675.414 1274.09 677.446 1150.82 675.781 1027.61 C 675.592 1013.58 672.371 999.796 672.154 985.846 C 671.839 965.564 673.822 945.088 674.033 924.769 L 674.116 777.25 L 673.981 712.29 C 673.916 699.694 672.793 685.995 674.557 673.542 C 676.348 660.895 683.454 649.392 686.109 636.833 C 692.693 605.699 681.509 578.858 664.709 553.32 C 666.344 550.207 668.235 547.153 670.437 544.408 C 683.924 527.603 707.987 517.691 728.904 515.389 z"/>
<path transform="translate(0,0)" fill="rgb(213,211,211)" d="M 689.248 891.243 L 693.392 892.275 C 693.831 892.778 694.409 893.188 694.709 893.785 C 695.988 896.325 695.629 966.024 695.549 973.441 C 692.998 973.163 691.431 973.131 689.29 971.581 C 687.178 962.225 688.288 903.088 689.248 891.243 z"/>
<path transform="translate(0,0)" fill="rgb(213,211,211)" d="M 898.254 1309.67 A 901.324 901.324 0 0 1 897.849 1325.4 A 8024.47 8024.47 0 0 0 799.405 1325.67 C 779.997 1325.82 759.6 1327.12 740.283 1325.48 L 739.844 1310.59 C 746.805 1311.4 754.535 1310.74 761.567 1310.72 L 803.222 1310.66 L 863.509 1310.55 C 874.959 1310.51 886.905 1311.11 898.254 1309.67 z"/>
<path transform="translate(0,0)" fill="rgb(0,0,0)" d="M 958.848 1217.11 C 957.437 1214.56 956.8 1213.31 956.779 1210.3 C 958.334 1207.86 959.158 1207.13 962.004 1206.36 C 968.509 1204.6 1044.22 1206.05 1057.41 1206.05 L 1243.02 1206.1 C 1271.26 1206.13 1299.89 1205.05 1328.07 1205.97 C 1331.91 1206.1 1335.21 1206.63 1338.68 1208.3 C 1340.33 1210.39 1341.07 1210.96 1340.57 1213.81 C 1340.36 1215 1339.2 1216.91 1338.55 1217.84 C 1248.59 1215.93 1158.34 1217.11 1068.36 1217.23 C 1031.93 1217.28 995.237 1218.4 958.848 1217.11 z"/>
<path transform="translate(0,0)" fill="rgb(0,0,0)" d="M 959.091 1024.18 C 957.444 1021.7 956.683 1020.38 956.308 1017.33 C 957.418 1015.07 958.103 1014.31 960.593 1013.55 C 967.076 1011.56 1039.07 1013.15 1051.52 1013.14 L 1238.34 1013.04 C 1267.79 1013.04 1297.36 1012.39 1326.8 1012.96 C 1330.39 1013.03 1334.49 1012.98 1337.64 1014.88 C 1339.26 1017.11 1340.12 1017.78 1339.46 1020.71 C 1339.23 1021.77 1338.01 1023.44 1337.48 1024.29 C 1325.7 1026.12 1311.25 1024.48 1299.21 1024.45 L 1211.72 1024.33 L 1047.82 1024.47 C 1018.41 1024.53 988.434 1025.9 959.091 1024.18 z"/>
<path transform="translate(0,0)" fill="rgb(0,0,0)" d="M 960.103 1117.81 C 958.115 1115.74 957 1114.61 956.139 1111.78 C 956.712 1109.39 956.849 1108.97 959.187 1107.69 C 961.706 1106.32 965.985 1106.44 968.758 1106.38 C 1025.18 1105.25 1081.9 1106.58 1138.37 1106.43 L 1257.76 1106.23 C 1280.86 1106.15 1304.05 1105.54 1327.12 1106.03 C 1330.39 1106.1 1334.48 1105.99 1337.45 1107.4 C 1339.47 1108.36 1339.68 1109.22 1340.58 1111.13 C 1340.19 1114.22 1339.72 1115.51 1337.26 1117.46 C 1337 1117.66 1336.74 1117.84 1336.47 1118.03 C 1211.04 1117.2 1085.53 1119.38 960.103 1117.81 z"/>
<path transform="translate(0,0)" fill="rgb(0,0,0)" d="M 958.708 929.098 C 957.216 926.522 956.578 925.411 956.702 922.319 C 958.408 919.702 959.846 918.824 962.948 918.223 C 972.285 916.414 983.035 917.86 992.547 917.926 L 1049.92 917.926 L 1283.93 918.041 C 1295.34 918.053 1363.39 916.03 1368.72 920.214 C 1369.58 920.889 1369.96 921.555 1370.55 922.412 C 1370.5 924.766 1369.77 926.509 1368.14 928.298 C 1367.36 929.162 1366.97 929.37 1366.1 929.98 C 1353.05 928.054 1338.15 929.476 1324.85 929.473 L 1243.54 929.246 L 958.708 929.098 z"/>
<path transform="translate(0,0)" fill="rgb(0,0,0)" d="M 960.209 1311.98 C 959.692 1311.26 958.895 1310.2 958.523 1309.42 C 957.384 1307.04 957.623 1306.15 958.207 1303.73 C 959.665 1302.21 960.875 1301.55 963 1301.28 C 977.618 1299.47 994.626 1301.23 1009.43 1301.25 L 1110.96 1301.14 L 1285.1 1301.02 C 1301.94 1300.98 1318.81 1301.23 1335.64 1301.03 C 1343.92 1300.93 1352.31 1299.95 1360.57 1300.25 C 1364.85 1300.41 1368.45 1300.8 1371.82 1303.64 C 1373.19 1306.88 1372.76 1308.04 1372.3 1311.46 C 1359.26 1314.67 1333.76 1312.57 1319.52 1312.58 L 1203.96 1312.58 L 1030.7 1312.73 C 1015.28 1312.74 973.312 1314.67 960.209 1311.98 z"/>
<path transform="translate(0,0)" fill="rgb(213,211,211)" d="M 960.209 1311.98 C 973.312 1314.67 1015.28 1312.74 1030.7 1312.73 L 1203.96 1312.58 L 1319.52 1312.58 C 1333.76 1312.57 1359.26 1314.67 1372.3 1311.46 C 1373.3 1315.24 1373.2 1318.95 1370.9 1322.32 C 1369.82 1323.92 1369.14 1324.41 1367.44 1325.17 C 1330.26 1326.4 1292.77 1325.25 1255.55 1325.4 L 959.975 1324.96 L 960.209 1311.98 z"/>
<path transform="translate(0,0)" fill="rgb(213,211,211)" d="M 958.848 1217.11 C 995.237 1218.4 1031.93 1217.28 1068.36 1217.23 C 1158.34 1217.11 1248.59 1215.93 1338.55 1217.84 L 1337.08 1231.37 L 958.903 1231.29 C 959.045 1226.53 959.04 1221.86 958.848 1217.11 z"/>
<path transform="translate(0,0)" fill="rgb(213,211,211)" d="M 959.091 1024.18 C 988.434 1025.9 1018.41 1024.53 1047.82 1024.47 L 1211.72 1024.33 L 1299.21 1024.45 C 1311.25 1024.48 1325.7 1026.12 1337.48 1024.29 C 1338.06 1028.79 1337.04 1033.86 1336.6 1038.4 C 1316.89 1039.08 1297 1038.54 1277.27 1038.57 L 1174.83 1038.77 L 958.946 1038.69 C 959.14 1033.84 959.299 1029.04 959.091 1024.18 z"/>
<path transform="translate(0,0)" fill="rgb(213,211,211)" d="M 960.103 1117.81 C 1085.53 1119.38 1211.04 1117.2 1336.47 1118.03 C 1337.4 1119.79 1338.42 1121.62 1339.07 1123.51 C 1340.01 1126.24 1339.77 1128.38 1338.55 1130.97 C 1335.66 1132.96 1334.14 1132.95 1330.62 1133.1 C 1314.67 1133.82 1298.43 1133.16 1282.45 1133.15 L 1192.88 1133.26 C 1114.99 1133.24 1037.05 1133.9 959.166 1133.03 C 959.011 1127.76 958.726 1122.97 960.103 1117.81 z"/>
<path transform="translate(0,0)" fill="rgb(213,211,211)" d="M 958.708 929.098 L 1243.54 929.246 L 1324.85 929.473 C 1338.15 929.476 1353.05 928.054 1366.1 929.98 C 1366.07 932.028 1365.89 931.367 1366.47 933.073 C 1367.83 937.119 1369.29 939.918 1367.4 944.006 C 1360.09 946.666 1283.13 945.008 1266.25 945.013 L 1064.64 944.653 A 6008.29 6008.29 0 0 1 959.001 944.082 C 959.09 939.053 958.967 934.119 958.708 929.098 z"/>
<path transform="translate(0,0)" fill="rgb(0,0,0)" d="M 821.264 902.393 A 64.9101 64.9101 0 0 1 864.212 912.735 A 71.6053 71.6053 0 0 1 895.528 959.655 A 68.1648 68.1648 0 0 1 884.902 1011.47 C 872.399 1029.8 853.472 1038.74 832.228 1042.86 C 814.008 1043.64 797.606 1039.73 783.116 1028.21 C 768.795 1016.82 758.905 998.455 756.929 980.295 C 754.861 961.275 761.292 941.858 773.452 927.216 C 785.989 912.12 801.882 904.184 821.264 902.393 z"/>
<path transform="translate(0,0)" fill="rgb(255,255,255)" d="M 822.574 927.166 C 830.425 926.661 837.848 928.312 843.805 933.807 C 849.462 939.025 852.586 946.84 852.645 954.486 C 852.734 965.938 846.449 973.173 838.789 980.669 C 845.346 985.207 853.096 987.791 859.467 992.66 C 863.995 996.121 868.25 1001.01 868.713 1006.95 C 868.942 1009.88 869.119 1011.69 867.209 1013.9 C 856.442 1015.97 843.565 1014.4 832.5 1014.27 C 825.043 1014.15 791.697 1016.59 787.886 1013.36 C 786.968 1009.84 787.931 1004.48 789.198 1001.05 C 792.716 991.538 805.909 986.607 814.365 982.343 C 808.785 976.272 803.128 970.781 800.368 962.789 A 25.6919 25.6919 0 0 1 801.72 942.685 C 805.955 934.505 814.151 929.947 822.574 927.166 z"/>
<path transform="translate(0,0)" fill="rgb(0,0,0)" d="M 845.862 649.324 C 864.901 647.146 884.958 652.357 900.897 662.822 C 919.107 674.777 933.606 694.306 938.031 715.811 A 87.0768 87.0768 0 0 1 925.251 781.344 C 911.869 801.332 891.145 813.523 867.808 818.088 C 847.275 820.809 826.278 816.645 809.243 804.541 A 88.3363 88.3363 0 0 1 773.324 747.212 C 769.766 724.881 774.47 701.036 787.954 682.657 C 801.763 663.836 823.123 652.843 845.862 649.324 z"/>
<path transform="translate(0,0)" fill="rgb(255,255,255)" d="M 855.363 671.196 C 861.625 670.782 867.934 672.438 873.347 675.572 C 882.247 680.727 889.143 689.977 891.368 700.024 C 895.711 719.638 884.867 739.119 875.114 755.247 C 879.677 756.449 884.54 757.611 888.753 759.773 C 894.864 762.908 905.317 771.339 906.727 778.505 C 907.199 780.902 906.932 782.419 905.142 784.197 C 900.754 788.558 864.633 786.652 857.5 786.658 C 843.718 786.632 820.262 788.343 807.889 786.354 C 806.582 785.367 805.648 785.081 805.15 783.424 C 804.044 779.744 805.096 775.202 806.913 771.893 C 812.752 761.257 826.291 757.966 837.117 754.987 C 830.712 743.316 824.956 733.456 822.366 720.167 C 820.105 708.567 821.041 696.031 828.087 686.149 C 834.757 676.793 844.545 673.216 855.363 671.196 z"/>
<path transform="translate(0,0)" fill="rgb(0,0,0)" d="M 739.844 1310.59 C 738.802 1277.14 739.337 1243.58 739.316 1210.11 C 739.303 1188.91 738.193 1167.06 739.684 1145.92 C 739.899 1142.88 739.976 1139.98 741.822 1137.44 C 745.364 1135.6 748.677 1134.96 752.648 1134.67 C 778.266 1132.83 804.733 1134.2 830.454 1134.09 C 849.461 1134.01 871.152 1132.15 889.905 1134.3 C 892.565 1134.6 895.216 1134.84 896.705 1137.34 C 898.392 1140.18 898.842 1144.45 899.053 1147.67 C 900.877 1175.53 899.22 1206.25 899.241 1234.47 C 899.255 1254.86 901.269 1291.13 898.254 1309.67 C 886.905 1311.11 874.959 1310.51 863.509 1310.55 L 803.222 1310.66 L 761.567 1310.72 C 754.535 1310.74 746.805 1311.4 739.844 1310.59 z"/>
<path transform="translate(0,0)" fill="rgb(255,255,255)" d="M 751.016 1145.89 A 5743.22 5743.22 0 0 1 887.035 1145.87 C 887.225 1196.68 888.99 1247.83 887.526 1298.62 L 751.007 1299.07 L 751.016 1145.89 z"/>
<path transform="translate(0,0)" fill="rgb(0,0,0)" d="M 1023.29 691.314 C 1045.01 690.283 1067.1 690.979 1088.85 690.965 L 1214.9 691.08 L 1289.91 691.149 C 1302.18 691.108 1315.45 689.912 1327.6 691.188 A 48.3932 48.3932 0 0 1 1348.9 698.577 C 1359.85 705.593 1367.56 716.371 1370.03 729.196 A 50.4357 50.4357 0 0 1 1361.82 767.762 C 1353.83 779.1 1342.5 785.267 1328.99 787.393 C 1310.53 788.785 1291.27 787.744 1272.72 787.791 L 1163.28 787.983 L 1074.26 788.089 C 1056.58 788.104 1038.11 789.184 1020.56 787.097 C 1012.71 786.163 1005.99 783.336 999.565 778.654 C 988.865 770.852 982.092 759.12 980.091 746.084 C 978.18 733.639 980.213 720.238 987.928 710.02 C 996.916 698.117 1008.94 693.115 1023.29 691.314 z"/>
<path transform="translate(0,0)" fill="rgb(255,255,255)" d="M 1031.23 731.408 C 1084.15 729.267 1140.06 731.107 1193.24 731.152 L 1276.89 731.18 C 1287.37 731.171 1298.26 730.192 1308.66 730.667 C 1310.97 730.772 1313.33 731.153 1315.52 731.9 C 1318.47 732.908 1321.93 734.973 1322.97 738.106 C 1323.65 740.17 1323.37 742.231 1321.96 743.922 C 1320.03 746.238 1317.58 746.794 1314.78 747.312 C 1309.37 747.687 1303.89 747.724 1298.46 747.781 L 1118.56 747.871 L 1065.59 748.044 C 1056.56 748.087 1047 748.734 1038.04 747.789 C 1033.15 747.273 1028.63 746.196 1025.04 742.696 C 1024.21 740.079 1023.95 738.572 1025.13 735.961 C 1026.32 733.298 1028.73 732.493 1031.23 731.408 z"/>
</svg>