<?xml version="1.0" encoding="UTF-8"?><svg id="b" xmlns="http://www.w3.org/2000/svg" xmlns:xlink="http://www.w3.org/1999/xlink" viewBox="0 0 1185.32 496.51"><defs><style>.e{fill:none;}.f{clip-path:url(#d);}.g{fill:#0d0dd1;}</style><clipPath id="d"><rect class="e" width="1185.32" height="496.51"/></clipPath></defs><g id="c"><g class="f"><path class="g" d="M478.35,226.5c-4.73,0-9.39-.86-13.97-2.57-4.58-1.71-8.73-4.18-12.46-7.4-3.73-3.22-6.64-7.17-8.76-11.85-2.11-4.68-3.17-9.99-3.17-15.93s1.06-11.22,3.17-15.86c2.11-4.63,5.01-8.56,8.68-11.78,3.67-3.22,7.78-5.69,12.31-7.4,4.53-1.71,9.16-2.57,13.89-2.57,3.62,0,7,.5,10.12,1.51,3.12,1.01,5.84,2.22,8.15,3.62,2.31,1.41,3.98,2.82,4.98,4.23,1.41,1.21,2.57,2.37,3.47,3.47.91,1.11,1.21,2.47.91,4.08-.3,1.01-.75,1.94-1.36,2.79-.6.86-1.36,1.74-2.27,2.64-2.42,2.82-4.83,3.88-7.25,3.17-1.31-.7-2.62-1.48-3.93-2.34-1.31-.85-2.62-1.66-3.93-2.42-1.31-.76-2.69-1.38-4.15-1.89-1.46-.5-3.05-.76-4.76-.76-3.73,0-7.07.83-10.04,2.49-2.97,1.66-5.29,3.95-6.95,6.87-1.66,2.92-2.49,6.29-2.49,10.12s.83,7.23,2.49,10.19c1.66,2.97,3.95,5.29,6.87,6.95,2.92,1.66,6.19,2.49,9.82,2.49,1.91,0,3.67-.23,5.29-.68,1.61-.45,3.07-1.06,4.38-1.81,1.31-.75,2.36-1.53,3.17-2.34,1.11-.7,2.11-1.36,3.02-1.96.91-.6,1.91-.91,3.02-.91s2.27.43,3.47,1.28c1.21.86,2.52,2.19,3.93,4,1.31,1.51,2.04,2.97,2.19,4.38.15,1.41-.18,2.77-.98,4.08-.81,1.31-2.06,2.57-3.78,3.78-1.21,1.11-2.97,2.32-5.29,3.62-2.32,1.31-5.01,2.42-8.08,3.32-3.07.91-6.32,1.36-9.74,1.36Z"/><path class="g" d="M556.27,227.11c-4.73,0-9.42-.96-14.04-2.87-4.63-1.91-8.78-4.55-12.46-7.93-3.68-3.37-6.57-7.4-8.68-12.08-2.11-4.68-3.17-9.79-3.17-15.33s.98-10.32,2.94-14.95c1.96-4.63,4.71-8.71,8.23-12.23,3.52-3.52,7.57-6.27,12.16-8.23,4.58-1.96,9.49-2.94,14.72-2.94,7.15,0,13.59,1.69,19.33,5.06,5.74,3.37,10.32,7.93,13.74,13.67,3.42,5.74,5.13,12.23,5.13,19.48,0,5.74-1.06,10.97-3.17,15.71-2.11,4.73-4.98,8.78-8.61,12.16-3.62,3.37-7.7,5.96-12.23,7.78-4.53,1.81-9.16,2.72-13.89,2.72ZM555.97,209.14c3.32,0,6.52-.83,9.59-2.49,3.07-1.66,5.59-4.05,7.55-7.17,1.96-3.12,2.94-6.8,2.94-11.02,0-3.93-.86-7.4-2.57-10.42-1.71-3.02-4.1-5.36-7.17-7.02-3.07-1.66-6.57-2.49-10.5-2.49-3.62,0-6.95.88-9.97,2.64-3.02,1.76-5.41,4.15-7.17,7.17-1.76,3.02-2.64,6.44-2.64,10.27,0,4.23.96,7.88,2.87,10.95,1.91,3.07,4.4,5.44,7.48,7.1,3.07,1.66,6.27,2.49,9.59,2.49Z"/><path class="g" d="M670.73,225.75c-3.02,0-5.21-.55-6.57-1.66-1.36-1.11-2.09-2.62-2.19-4.53l1.06-4.98c-.81,1.31-2.17,2.85-4.08,4.61-1.91,1.76-4.41,3.32-7.47,4.68-3.07,1.36-6.82,2.04-11.25,2.04-4.73,0-9.19-.98-13.36-2.94-4.18-1.96-7.88-4.68-11.1-8.15-3.22-3.47-5.74-7.45-7.55-11.93-1.81-4.48-2.72-9.29-2.72-14.42s.91-9.59,2.72-13.97c1.81-4.38,4.35-8.28,7.63-11.7,3.27-3.42,6.97-6.12,11.1-8.08,4.13-1.96,8.56-2.94,13.29-2.94,4.03,0,7.48.55,10.34,1.66,2.87,1.11,5.31,2.49,7.32,4.15,2.01,1.66,3.67,3.4,4.98,5.21l-.75-4.38c-.1-2.21.55-3.9,1.96-5.06,1.41-1.16,3.67-1.74,6.8-1.74,2.72,0,4.7.43,5.96,1.28,1.26.86,2.04,2.04,2.34,3.55.3,1.51.45,3.17.45,4.98v55.12c0,1.71-.15,3.27-.45,4.68-.3,1.41-1.08,2.52-2.34,3.32-1.26.8-3.3,1.21-6.12,1.21ZM642.95,208.23c3.32,0,6.37-.85,9.14-2.57,2.77-1.71,4.96-4.05,6.57-7.02,1.61-2.97,2.42-6.27,2.42-9.89,0-3.82-.83-7.2-2.49-10.12-1.66-2.92-3.9-5.23-6.72-6.95-2.82-1.71-5.89-2.57-9.21-2.57-3.73,0-7.05.88-9.97,2.64-2.92,1.76-5.21,4.13-6.87,7.1-1.66,2.97-2.49,6.32-2.49,10.04s.85,6.9,2.57,9.82c1.71,2.92,4.05,5.24,7.02,6.95,2.97,1.71,6.32,2.57,10.04,2.57Z"/><path class="g" d="M733.1,226.5c-4.73,0-9.39-.86-13.97-2.57-4.58-1.71-8.74-4.18-12.46-7.4-3.73-3.22-6.64-7.17-8.76-11.85-2.11-4.68-3.17-9.99-3.17-15.93s1.06-11.22,3.17-15.86c2.11-4.63,5.01-8.56,8.68-11.78,3.67-3.22,7.78-5.69,12.31-7.4,4.53-1.71,9.16-2.57,13.89-2.57,3.62,0,7,.5,10.12,1.51,3.12,1.01,5.84,2.22,8.16,3.62,2.31,1.41,3.98,2.82,4.98,4.23,1.41,1.21,2.57,2.37,3.47,3.47.91,1.11,1.21,2.47.91,4.08-.3,1.01-.75,1.94-1.36,2.79-.6.86-1.36,1.74-2.26,2.64-2.42,2.82-4.83,3.88-7.25,3.17-1.31-.7-2.62-1.48-3.93-2.34-1.31-.85-2.62-1.66-3.93-2.42-1.31-.76-2.69-1.38-4.15-1.89-1.46-.5-3.05-.76-4.76-.76-3.73,0-7.07.83-10.04,2.49-2.97,1.66-5.29,3.95-6.95,6.87-1.66,2.92-2.49,6.29-2.49,10.12s.83,7.23,2.49,10.19c1.66,2.97,3.95,5.29,6.87,6.95,2.92,1.66,6.19,2.49,9.82,2.49,1.91,0,3.67-.23,5.29-.68,1.61-.45,3.07-1.06,4.38-1.81,1.31-.75,2.36-1.53,3.17-2.34,1.11-.7,2.11-1.36,3.02-1.96s1.91-.91,3.02-.91,2.26.43,3.47,1.28c1.21.86,2.52,2.19,3.93,4,1.31,1.51,2.04,2.97,2.19,4.38.15,1.41-.18,2.77-.98,4.08-.81,1.31-2.06,2.57-3.78,3.78-1.21,1.11-2.97,2.32-5.29,3.62-2.32,1.31-5.01,2.42-8.08,3.32-3.07.91-6.32,1.36-9.74,1.36Z"/><path class="g" d="M784.6,226.05c-2.82,0-4.88-.43-6.19-1.28-1.31-.85-2.11-1.99-2.42-3.4-.3-1.41-.45-2.92-.45-4.53v-90c0-1.71.17-3.27.53-4.68.35-1.41,1.18-2.52,2.49-3.32,1.31-.8,3.37-1.21,6.19-1.21s4.86.43,6.12,1.28c1.26.86,2.06,1.96,2.42,3.32.35,1.36.53,2.94.53,4.76v33.98c2.01-2.31,4.61-4.45,7.78-6.42,3.17-1.96,7.02-2.94,11.55-2.94,6.14,0,11.63,1.49,16.46,4.46,4.83,2.97,8.66,7.1,11.48,12.38,2.82,5.29,4.23,11.45,4.23,18.5v30.05c0,1.61-.15,3.1-.45,4.46-.3,1.36-1.08,2.44-2.34,3.25-1.26.8-3.35,1.21-6.27,1.21-2.72,0-4.73-.4-6.04-1.21-1.31-.8-2.14-1.89-2.49-3.25-.35-1.36-.53-2.94-.53-4.76v-29.9c0-3.62-.6-6.72-1.81-9.29-1.21-2.57-3-4.58-5.36-6.04-2.37-1.46-5.26-2.19-8.68-2.19-4.73,0-8.71,1.39-11.93,4.15-3.22,2.77-5.08,6.32-5.59,10.65v32.92c0,1.61-.18,3.12-.53,4.53-.35,1.41-1.16,2.52-2.42,3.32-1.26.8-3.35,1.21-6.27,1.21Z"/><path class="g" d="M871.13,137.26c-3.02,0-5.21-.45-6.57-1.36-1.36-.91-2.22-2.11-2.57-3.62-.35-1.51-.53-3.17-.53-4.98s.2-3.45.6-4.91c.4-1.46,1.28-2.62,2.64-3.47,1.36-.85,3.55-1.28,6.57-1.28s5.18.45,6.49,1.36c1.31.91,2.16,2.11,2.57,3.62.4,1.51.6,3.17.6,4.98s-.2,3.45-.6,4.91c-.4,1.46-1.26,2.62-2.57,3.47-1.31.86-3.53,1.28-6.64,1.28ZM871.13,226.05c-2.82,0-4.86-.43-6.12-1.28-1.26-.85-2.04-1.96-2.34-3.32-.3-1.36-.45-2.89-.45-4.61v-56.03c0-1.71.15-3.25.45-4.61.3-1.36,1.11-2.44,2.42-3.25,1.31-.8,3.37-1.21,6.19-1.21s4.86.4,6.12,1.21c1.26.81,2.04,1.91,2.34,3.32.3,1.41.45,3.02.45,4.83v55.87c0,1.71-.15,3.25-.45,4.61-.3,1.36-1.08,2.44-2.34,3.25-1.26.8-3.35,1.21-6.27,1.21Z"/><path class="g" d="M908.27,225.9c-2.82,0-4.86-.43-6.12-1.28-1.26-.85-2.04-1.96-2.34-3.32-.3-1.36-.45-2.89-.45-4.61v-56.48c0-1.61.17-3.07.53-4.38.35-1.31,1.16-2.34,2.42-3.1,1.26-.75,3.3-1.13,6.12-1.13,2.42,0,4.23.3,5.44.91s2.01,1.39,2.42,2.34c.4.96.63,1.86.68,2.72.05.86.12,1.54.23,2.04l-.6,4.83c.6-1.61,1.61-3.17,3.02-4.68,1.41-1.51,3.12-2.89,5.13-4.15,2.01-1.26,4.2-2.27,6.57-3.02,2.36-.76,4.81-1.13,7.32-1.13,4.73,0,8.96.86,12.69,2.57,3.72,1.71,6.92,4.13,9.59,7.25,2.67,3.12,4.71,6.85,6.12,11.17,1.41,4.33,2.11,9.11,2.11,14.35v30.05c0,1.71-.18,3.25-.53,4.61-.35,1.36-1.13,2.44-2.34,3.25s-3.27,1.21-6.19,1.21-5.01-.43-6.27-1.28c-1.26-.85-2.06-1.96-2.42-3.32-.35-1.36-.53-2.89-.53-4.61v-29.9c0-3.62-.6-6.74-1.81-9.36-1.21-2.62-3.02-4.66-5.44-6.12-2.42-1.46-5.44-2.19-9.06-2.19-3.42,0-6.44.73-9.06,2.19-2.62,1.46-4.63,3.5-6.04,6.12-1.41,2.62-2.11,5.74-2.11,9.36v30.05c0,1.71-.15,3.25-.45,4.61-.3,1.36-1.08,2.44-2.34,3.25-1.26.8-3.35,1.21-6.27,1.21Z"/><path class="g" d="M1017.45,224.09c-4.73,0-9.14-.91-13.21-2.72-4.08-1.81-7.68-4.38-10.8-7.7-3.12-3.32-5.54-7.17-7.25-11.55-1.71-4.38-2.57-9.14-2.57-14.27s.85-9.71,2.57-14.04c1.71-4.33,4.13-8.15,7.25-11.48,3.12-3.32,6.72-5.91,10.8-7.78,4.08-1.86,8.43-2.79,13.06-2.79s8.33.88,11.7,2.64c3.37,1.76,6.19,4.25,8.46,7.48,2.27,3.22,3.95,7.05,5.06,11.48,1.11,4.43,1.66,9.31,1.66,14.65,0,7.35-.98,13.74-2.94,19.18-1.96,5.44-4.93,9.62-8.91,12.53-3.98,2.92-8.94,4.38-14.88,4.38ZM1018.96,256.4c-3.53,0-6.97-.43-10.34-1.28-3.38-.86-6.39-1.99-9.06-3.4-2.67-1.41-4.78-2.95-6.34-4.61-1.56-1.66-2.34-3.2-2.34-4.6s.23-2.62.68-3.62c.45-1.01,1.13-2.02,2.04-3.02,1.21-1.21,2.21-2.11,3.02-2.72.8-.6,1.86-.91,3.17-.91,1.11,0,2.19.4,3.25,1.21,1.06.8,2.29,1.71,3.7,2.72,1.41,1.01,3.12,1.91,5.13,2.72,2.01.8,4.53,1.21,7.55,1.21,2.72,0,5.16-.45,7.32-1.36,2.16-.91,4.05-2.24,5.66-4,1.61-1.76,2.84-3.85,3.7-6.27.85-2.42,1.28-5.13,1.28-8.15l-.15-62.52c.2-2.31,1-3.95,2.42-4.91,1.41-.96,3.62-1.43,6.64-1.43,2.72,0,4.68.38,5.89,1.13,1.21.75,1.96,1.81,2.27,3.17.3,1.36.45,2.9.45,4.61v61.01c0,5.54-.96,10.47-2.87,14.8-1.91,4.33-4.56,8-7.93,11.02-3.37,3.02-7.2,5.31-11.48,6.87-4.28,1.56-8.83,2.34-13.67,2.34ZM1019.12,207.02c3.32,0,6.32-.83,8.99-2.49,2.67-1.66,4.81-3.95,6.42-6.87,1.61-2.92,2.42-6.19,2.42-9.82s-.81-7-2.42-9.82c-1.61-2.82-3.78-5.03-6.49-6.64-2.72-1.61-5.79-2.42-9.21-2.42s-6.32.81-8.99,2.42c-2.67,1.61-4.76,3.85-6.27,6.72-1.51,2.87-2.26,6.12-2.26,9.74s.78,7.02,2.34,9.89c1.56,2.87,3.67,5.13,6.34,6.8,2.67,1.66,5.71,2.49,9.14,2.49Z"/><path class="g" d="M450.71,350.28c-2.82,0-4.88-.43-6.19-1.28-1.31-.85-2.11-1.99-2.42-3.4-.3-1.41-.45-2.92-.45-4.53v-90c0-1.71.17-3.27.53-4.68.35-1.41,1.18-2.52,2.49-3.32,1.31-.8,3.37-1.21,6.19-1.21s4.86.43,6.12,1.28c1.26.86,2.06,1.96,2.42,3.32.35,1.36.53,2.94.53,4.76v33.98c2.01-2.31,4.61-4.46,7.78-6.42s7.02-2.94,11.55-2.94c6.14,0,11.63,1.49,16.46,4.46,4.83,2.97,8.66,7.1,11.48,12.38,2.82,5.29,4.23,11.45,4.23,18.5v30.05c0,1.61-.15,3.1-.45,4.46-.3,1.36-1.08,2.44-2.34,3.25-1.26.8-3.35,1.21-6.27,1.21-2.72,0-4.73-.4-6.04-1.21-1.31-.8-2.14-1.89-2.49-3.25-.35-1.36-.53-2.94-.53-4.76v-29.9c0-3.62-.6-6.72-1.81-9.29-1.21-2.57-3-4.58-5.36-6.04-2.37-1.46-5.26-2.19-8.68-2.19-4.73,0-8.71,1.38-11.93,4.15-3.22,2.77-5.08,6.32-5.59,10.65v32.92c0,1.61-.18,3.12-.53,4.53-.35,1.41-1.16,2.52-2.42,3.32-1.26.8-3.35,1.21-6.27,1.21Z"/><path class="g" d="M562.16,351.34c-4.73,0-9.42-.96-14.04-2.87-4.63-1.91-8.78-4.55-12.46-7.93-3.68-3.37-6.57-7.4-8.68-12.08-2.11-4.68-3.17-9.79-3.17-15.33s.98-10.32,2.94-14.95c1.96-4.63,4.71-8.71,8.23-12.23s7.57-6.27,12.16-8.23c4.58-1.96,9.49-2.95,14.72-2.95,7.15,0,13.59,1.69,19.33,5.06,5.74,3.37,10.32,7.93,13.74,13.67,3.42,5.74,5.13,12.23,5.13,19.48,0,5.74-1.06,10.97-3.17,15.71-2.11,4.73-4.98,8.79-8.61,12.16-3.62,3.37-7.7,5.96-12.23,7.78-4.53,1.81-9.16,2.72-13.89,2.72ZM561.86,333.37c3.32,0,6.52-.83,9.59-2.49,3.07-1.66,5.59-4.05,7.55-7.17,1.96-3.12,2.94-6.79,2.94-11.02,0-3.93-.86-7.4-2.57-10.42-1.71-3.02-4.1-5.36-7.17-7.02-3.07-1.66-6.57-2.49-10.5-2.49-3.62,0-6.95.88-9.97,2.64-3.02,1.76-5.41,4.15-7.17,7.17-1.76,3.02-2.64,6.44-2.64,10.27,0,4.23.96,7.88,2.87,10.95,1.91,3.07,4.4,5.44,7.48,7.1,3.07,1.66,6.27,2.49,9.59,2.49Z"/><path class="g" d="M645.52,350.13c-4.63,0-8.91-.83-12.84-2.49-3.93-1.66-7.35-4.05-10.27-7.17-2.92-3.12-5.19-6.84-6.8-11.17-1.61-4.33-2.42-9.11-2.42-14.35v-30.05c0-1.71.17-3.25.53-4.61.35-1.36,1.18-2.44,2.49-3.25,1.31-.8,3.32-1.21,6.04-1.21,2.92,0,5.01.4,6.27,1.21,1.26.81,2.04,1.91,2.34,3.32.3,1.41.45,2.97.45,4.68v29.9c0,3.62.63,6.75,1.89,9.36,1.26,2.62,3.1,4.66,5.51,6.12,2.42,1.46,5.38,2.19,8.91,2.19s6.69-.73,9.21-2.19c2.51-1.46,4.48-3.52,5.89-6.19,1.41-2.67,2.11-5.76,2.11-9.29v-30.05c0-1.71.17-3.27.53-4.68.35-1.41,1.16-2.49,2.42-3.25,1.26-.76,3.35-1.13,6.27-1.13s4.83.4,6.04,1.21c1.21.81,1.99,1.91,2.34,3.32.35,1.41.53,2.97.53,4.68v56.48c0,1.51-.18,2.92-.53,4.23-.35,1.31-1.16,2.37-2.42,3.17-1.26.8-3.3,1.21-6.12,1.21-2.01,0-3.62-.23-4.83-.68s-2.09-1.06-2.64-1.81c-.55-.75-.91-1.53-1.06-2.34-.15-.8-.23-1.61-.23-2.42l1.36-3.93c-.71.81-1.66,1.84-2.87,3.1-1.21,1.26-2.69,2.52-4.46,3.78-1.76,1.26-3.77,2.29-6.04,3.1s-4.81,1.21-7.63,1.21Z"/><path class="g" d="M709.55,350.28c-2.82,0-4.86-.43-6.12-1.28-1.26-.85-2.04-1.99-2.34-3.4-.3-1.41-.45-2.97-.45-4.68v-56.03c0-1.71.17-3.27.53-4.68.35-1.41,1.16-2.49,2.42-3.25,1.26-.76,3.3-1.13,6.12-1.13s4.71.35,5.96,1.06c1.26.71,2.06,1.61,2.42,2.72.35,1.11.53,2.11.53,3.02l-1.21,2.72c.5-.8,1.21-1.79,2.11-2.95.91-1.16,2.11-2.31,3.62-3.47,1.51-1.16,3.32-2.11,5.44-2.87s4.63-1.13,7.55-1.13c1.21,0,2.49.13,3.85.38,1.36.25,2.72.6,4.08,1.06s2.59,1.03,3.7,1.74c1.11.71,1.96,1.54,2.57,2.49.6.96.91,2.04.91,3.25,0,3.22-.81,5.94-2.42,8.16-1.61,2.22-3.53,3.32-5.74,3.32-1.51,0-2.62-.15-3.32-.45-.71-.3-1.28-.63-1.74-.98-.45-.35-1.11-.68-1.96-.98-.86-.3-2.19-.45-4-.45-1.51,0-3.05.25-4.61.75-1.56.5-3,1.26-4.3,2.26-1.31,1.01-2.37,2.27-3.17,3.78-.81,1.51-1.21,3.27-1.21,5.29v36.7c0,1.71-.15,3.25-.45,4.61-.3,1.36-1.11,2.44-2.42,3.25-1.31.8-3.42,1.21-6.34,1.21Z"/><path class="g" d="M791.69,351.18c-2.52,0-5.24-.28-8.15-.83-2.92-.55-5.74-1.36-8.46-2.42-2.72-1.06-5.06-2.32-7.02-3.78-1.96-1.46-3.25-3.1-3.85-4.91-.3-1-.43-1.99-.38-2.94.05-.96.35-1.96.91-3.02.55-1.06,1.28-2.14,2.19-3.25.91-1.11,1.86-1.74,2.87-1.89,1-.15,2.21.18,3.62.98,1.41.5,2.89,1.16,4.46,1.96,1.56.81,3.17,1.61,4.83,2.42,1.66.81,3.37,1.46,5.13,1.96,1.76.5,3.5.75,5.21.75,3.72,0,6.67-.63,8.83-1.89,2.16-1.26,3.25-3.04,3.25-5.36,0-1.31-.33-2.44-.98-3.4-.66-.96-1.59-1.79-2.79-2.49-1.21-.7-2.57-1.31-4.08-1.81-1.51-.5-3.17-1-4.98-1.51-1.81-.5-3.62-1-5.44-1.51-2.62-.7-5.16-1.56-7.63-2.57-2.47-1.01-4.71-2.32-6.72-3.93-2.01-1.61-3.62-3.65-4.83-6.12-1.21-2.47-1.81-5.51-1.81-9.14,0-4.53,1.11-8.38,3.32-11.55,2.21-3.17,5.38-5.61,9.51-7.32,4.13-1.71,9.11-2.57,14.95-2.57,2.01,0,3.95.15,5.81.45,1.86.3,3.67.73,5.44,1.28,1.76.55,3.47,1.23,5.13,2.04,1.66.81,3.25,1.71,4.76,2.72,2.51,1.41,3.82,3.05,3.93,4.91.1,1.86-.6,3.85-2.11,5.96-1.11,1.51-2.22,2.54-3.32,3.1-1.11.55-2.26.53-3.47-.08-1.61-.8-3.35-1.66-5.21-2.57-1.86-.91-3.78-1.71-5.74-2.42-1.96-.7-4-1.06-6.12-1.06s-3.83.3-5.44.91c-1.61.6-2.82,1.46-3.62,2.57-.81,1.11-1.21,2.37-1.21,3.78s.4,2.57,1.21,3.47c.8.91,1.86,1.66,3.17,2.27,1.31.6,2.87,1.13,4.68,1.58,1.81.45,3.72.88,5.74,1.28,2.82.6,5.69,1.36,8.61,2.26,2.92.91,5.61,2.17,8.08,3.78,2.47,1.61,4.46,3.75,5.96,6.42,1.51,2.67,2.27,6.12,2.27,10.34,0,7.35-2.7,13.04-8.08,17.06-5.39,4.03-12.86,6.04-22.43,6.04Z"/><path class="g" d="M243.28,204.7c2.68-.54,5.42-.77,8.22-.77s5.54.24,8.22.71v-79.35c0-4.54-3.68-8.22-8.22-8.22h0c-4.54,0-8.22,3.68-8.22,8.22v79.41Z"/><path class="g" d="M289.75,223.82l59.18-59.18v16.74h16.43s-.02-28.92-.02-28.92c0-8.57-6.95-15.52-15.53-15.52h-28.9v16.43h16.05l-58.89,58.89c4.53,3.1,8.46,7.09,11.68,11.56Z"/><path class="g" d="M379.94,239.43l-20.43-20.43-11.62,11.62,11.62,11.62h-62.2c.48,2.68.71,5.36.71,8.16s-.24,5.54-.71,8.22h62.2l-11.61,11.61,11.62,11.62,20.44-20.46c6.06-6.06,6.06-15.89,0-21.95Z"/><path class="g" d="M348.93,319.46v16.75l-59.24-59.24c-3.1,4.53-7.09,8.46-11.62,11.62l58.86,58.86.03.03h-16.04v16.43l28.9-.02c8.57,0,15.51-6.95,15.52-15.52l.02-28.9h-16.43Z"/><path class="g" d="M150.58,176.32v-15.23h0s62.73,62.73,62.73,62.73c3.22-4.53,7.15-8.46,11.68-11.56l-63.95-63.95h17.55v-16.43s-28.9,0-28.9,0c-8.57,0-15.52,6.95-15.53,15.52l-.02,28.92h16.43Z"/><path class="g" d="M125.96,250.42h0c0,4.52,3.67,8.19,8.19,8.19h69.63c1.15,0,2.1.81,2.35,1.94,1.32,5.99,3.8,11.52,7.24,16.41l-68.66,68.66c-3.21,3.21-3.21,8.41,0,11.62h0c3.21,3.21,8.41,3.21,11.62,0l68.66-68.66c4.84,3.44,10.37,5.92,16.35,7.24,1.12.25,1.94,1.2,1.94,2.35v67.55c0,4.54,3.68,8.22,8.22,8.22h0c4.54,0,8.22-3.68,8.22-8.22v-107.41c0-8.88-7.2-16.08-16.08-16.08h-109.49c-4.52,0-8.19,3.67-8.19,8.19Z"/></g></g></svg>