<svg width="40" height="42" viewBox="0 0 40 42" fill="none" xmlns="http://www.w3.org/2000/svg">
<path fill-rule="evenodd" clip-rule="evenodd" d="M35.4223 24.7874C35.1809 24.5039 34.7191 24.6929 34.7401 25.0605L34.8031 26.2262L21.9041 21.0277L35.0655 15.2201L35.076 16.3228C35.076 16.6904 35.5483 16.8479 35.7687 16.5433L39.0958 12.0485C39.2742 11.8069 39.1167 11.4498 38.8124 11.4288L33.2288 11.0508C32.8614 11.0298 32.6725 11.4813 32.9454 11.7229L33.9005 12.5526L20.9175 18.2762L19.1228 0.370197C19.0808 -0.123399 18.3461 -0.123399 18.3042 0.370197L16.4674 18.8328L5.28974 14.3379L6.28681 13.4662C6.57019 13.2247 6.38127 12.7626 6.00343 12.7941L0.41982 13.1617C0.115451 13.1827 -0.0419785 13.5292 0.136445 13.7813L1.75275 15.9762L1.72126 16.0392L1.82622 16.0812L3.45302 18.2867C3.67343 18.5807 4.14573 18.4337 4.14573 18.0661V17.0264H4.16671L15.9322 21.7628C15.9007 21.6053 15.8902 21.4268 15.8902 21.2587C15.8902 20.6181 16.1106 20.0195 16.4779 19.5469C16.6144 19.3684 16.7718 19.2003 16.9607 19.0533C17.433 18.6752 18.0418 18.4442 18.7135 18.4442C19.1543 18.4442 19.5636 18.5387 19.931 18.7172C20.3298 18.9168 20.6761 19.2003 20.9385 19.5469C21.2324 19.925 21.4318 20.3766 21.5053 20.8807C21.5158 20.9752 21.5263 21.0802 21.5263 21.1852V21.2587C21.5263 21.8468 21.3479 22.4035 21.0225 22.855C20.8441 23.1176 20.6237 23.3591 20.3613 23.5377C19.8995 23.8842 19.3327 24.0838 18.7135 24.0838C17.7479 24.0838 16.8978 23.6007 16.394 22.855L18.2622 41.5907C18.3147 42.1368 19.1123 42.1368 19.1648 41.5907L20.9385 23.7687L33.7535 28.9357L32.9034 29.7864C32.641 30.0489 32.8614 30.49 33.2288 30.4375L36.4404 30.0069H36.4614H36.4719L38.7809 29.6919C39.0853 29.6499 39.2217 29.2928 39.0223 29.0617L35.4013 24.7979L35.4223 24.7874ZM18.0838 19.5469H18.2202L18.1467 19.5154L18.0838 19.5469ZM9.23604 22.0149L15.4494 22.435L15.4389 22.4455C15.7747 22.4665 15.9532 22.855 15.7537 23.1281L12.0488 28.1376C11.8074 28.4631 11.2722 28.2951 11.2722 27.8855L11.2512 26.2892L1.26996 31.0991L0 28.4946L9.97073 23.6952L8.92118 22.771C8.61681 22.498 8.82672 21.9834 9.23604 22.0149Z" fill="#0D0DD1"/>
</svg>
