<?xml version="1.0" encoding="UTF-8"?><svg id="b" xmlns="http://www.w3.org/2000/svg" xmlns:xlink="http://www.w3.org/1999/xlink" viewBox="0 0 454.55 454.55"><defs><style>.e{fill:none;}.f{fill:#fff;}.g{clip-path:url(#d);}</style><clipPath id="d"><rect class="e" width="454.55" height="454.55"/></clipPath></defs><g id="c"><g class="g"><path class="f" d="M223.55,97.18c-4.54,0-8.22,3.68-8.22,8.22v79.41c2.68-.54,5.42-.77,8.22-.77s5.54.24,8.22.71v-79.35c0-4.54-3.68-8.22-8.22-8.22Z"/><path class="f" d="M261.8,203.93l59.18-59.18v16.74h16.43s-.02-28.92-.02-28.92c0-8.57-6.95-15.52-15.53-15.52h-28.9v16.43h16.05l-58.89,58.89c4.53,3.1,8.46,7.09,11.68,11.56Z"/><path class="f" d="M351.99,219.54l-20.43-20.43-11.62,11.62,11.62,11.62h-62.2c.48,2.68.71,5.36.71,8.16s-.24,5.54-.71,8.22h62.2l-11.61,11.61,11.62,11.62,20.44-20.46c6.06-6.06,6.06-15.89,0-21.95Z"/><path class="f" d="M320.98,316.31l-59.24-59.24c-3.1,4.53-7.09,8.46-11.62,11.62l58.86,58.86.03.03h-16.04v16.43l28.9-.02c8.57,0,15.51-6.95,15.52-15.52l.02-28.9h-16.43v16.75Z"/><path class="f" d="M122.63,141.2h0s62.73,62.73,62.73,62.73c3.22-4.53,7.15-8.46,11.68-11.56l-63.95-63.95h17.55v-16.43s-28.9,0-28.9,0c-8.57,0-15.52,6.95-15.53,15.52l-.02,28.92h16.43v-15.23Z"/><path class="f" d="M215.69,222.34h-109.49c-4.52,0-8.19,3.67-8.19,8.19h0c0,4.52,3.67,8.19,8.19,8.19h69.63c1.15,0,2.1.81,2.35,1.94,1.32,5.99,3.8,11.52,7.24,16.41l-68.66,68.66c-3.21,3.21-3.21,8.41,0,11.62h0c3.21,3.21,8.41,3.21,11.62,0l68.66-68.66c4.84,3.44,10.37,5.92,16.35,7.24,1.12.25,1.94,1.2,1.94,2.35v67.55c0,4.54,3.68,8.22,8.22,8.22s8.22-3.68,8.22-8.22v-107.41c0-8.88-7.2-16.08-16.08-16.08Z"/></g></g></svg>